<svg xmlns="http://www.w3.org/2000/svg" viewBox="0 0 1024 1024" width="1024" height="1024">
  <path d="M 449.27 299.1 L 442.78 299.55 L 436.27 300.18 L 429.72 301 L 423.16 302.01 L 416.58 303.2 L 410.01 304.57 L 403.43 306.12 L 396.86 307.84 L 390.31 309.74 L 383.78 311.82 L 377.28 314.06 L 370.82 316.47 L 364.4 319.05 L 358.03 321.8 L 351.73 324.71 L 345.48 327.78 L 339.32 331.01 L 333.22 334.39 L 327.22 337.94 L 321.31 341.63 L 315.5 345.48 L 309.8 349.48 L 304.21 353.62 L 298.74 357.91 L 293.4 362.34 L 288.18 366.91 L 283.1 371.61 L 278.15 376.45 L 273.35 381.41 L 268.69 386.51 L 264.18 391.72 L 259.83 397.06 L 255.63 402.51 L 251.6 408.08 L 247.74 413.76 L 244.05 419.54 L 240.54 425.44 L 237.2 431.43 L 234.06 437.52 L 231.1 443.71 L 228.34 449.99 L 225.78 456.36 L 223.43 462.82 L 221.28 469.36 L 219.34 475.98 L 217.62 482.68 L 216.12 489.45 L 214.84 496.29 L 213.79 503.19 L 212.95 510.13 L 212.32 517.12 L 211.92 524.13 L 211.72 531.17 L 211.74 538.22 L 211.97 545.27 L 212.41 552.31 L 213.05 559.34 L 213.9 566.35 L 214.96 573.32 L 216.22 580.25 L 217.68 587.13 L 219.34 593.95 L 221.2 600.69 L 223.26 607.36 L 225.51 613.94 L 227.95 620.43 L 230.59 626.8 L 233.42 633.07 L 236.44 639.22 L 239.63 645.26 L 243 651.18 L 246.55 656.99 L 250.26 662.68 L 254.14 668.25 L 258.17 673.71 L 262.36 679.05 L 266.7 684.26 L 271.18 689.37 L 275.8 694.35 L 280.56 699.21 L 285.45 703.94 L 290.47 708.56 L 295.61 713.06 L 300.87 717.43 L 306.24 721.68 L 311.72 725.8 L 317.31 729.8 L 323 733.68 L 328.78 737.43 L 334.65 741.05 L 340.6 744.54 L 346.64 747.91 L 352.76 751.15 L 358.95 754.26 L 365.22 757.24 L 371.55 760.09 L 377.94 762.81 L 384.4 765.39 L 390.92 767.84 L 397.49 770.17 L 404.11 772.35 L 410.78 774.4 L 417.49 776.32 L 424.25 778.1 L 431.04 779.74 L 437.87 781.25 L 444.72 782.62 L 451.61 783.84 L 458.52 784.93 L 465.45 785.88 L 472.4 786.69 L 479.37 787.36 L 486.35 787.88 L 493.33 788.26 L 500.32 788.5 L 507.31 788.59 L 514.3 788.54 L 521.28 788.34 L 528.25 788 L 535.21 787.5 L 542.16 786.87 L 549.09 786.08 L 555.99 785.14 L 562.87 784.05 L 569.72 782.81 L 576.54 781.42 L 583.33 779.88 L 590.07 778.19 L 596.78 776.34 L 603.43 774.34 L 610.04 772.18 L 616.6 769.87 L 623.1 767.4 L 629.54 764.77 L 635.92 761.99 L 642.23 759.06 L 648.48 755.98 L 654.64 752.75 L 660.73 749.38 L 666.74 745.87 L 672.67 742.22 L 678.5 738.44 L 684.24 734.52 L 689.88 730.47 L 695.42 726.3 L 700.85 722 L 706.18 717.58 L 711.39 713.03 L 716.49 708.37 L 721.47 703.6 L 726.32 698.72 L 731.04 693.72 L 735.63 688.62 L 740.08 683.42 L 744.4 678.11 L 748.57 672.71 L 752.59 667.21 L 756.46 661.62 L 760.18 655.94 L 763.73 650.17 L 767.13 644.32 L 770.35 638.38 L 773.41 632.37 L 776.29 626.28 L 778.99 620.11 L 781.51 613.87 L 783.84 607.57 L 785.98 601.2 L 787.93 594.76 L 789.68 588.26 L 791.23 581.71 L 792.57 575.1 L 793.7 568.44 L 794.62 561.72 L 795.32 554.96 L 795.8 548.16 L 796.06 541.31 L 796.08 534.42 L 795.88 527.5 L 795.43 520.54 L 794.76 513.57 L 793.86 506.57 L 792.73 499.58 L 791.39 492.59 L 789.83 485.61 L 788.05 478.67 L 786.07 471.75 L 783.88 464.88 L 781.49 458.07 L 778.9 451.32 L 776.12 444.65 L 773.15 438.06 L 770 431.56 L 766.66 425.16 L 763.14 418.88 L 759.45 412.73 L 755.59 406.7 L 751.56 400.82 L 747.37 395.09 L 743.02 389.52 L 738.51 384.12 L 733.85 378.92 L 729.05 374.02 L 724.12 369.58 L 719.06 365.76 L 713.9 362.72 L 708.63 360.63 L 703.27 359.64 L 697.82 359.83 L 692.26 361 L 686.54 362.93 L 680.65 365.4 L 674.54 368.18 L 668.18 371.04 L 661.59 373.84 L 654.84 376.57 L 647.99 379.25 L 641.14 381.88 L 634.37 384.47 L 627.74 387.03 L 621.35 389.56 L 615.26 392.09 L 609.56 394.6 L 604.33 397.12 L 599.64 399.65 L 595.75 402.27 L 593.34 405.27 L 593.22 408.98 L 595.69 413.55 L 599.9 418.76 L 604.77 424.32 L 609.39 429.97 L 613.58 435.67 L 617.39 441.43 L 620.86 447.28 L 624.07 453.22 L 627.05 459.29 L 629.85 465.5 L 632.48 471.84 L 634.92 478.3 L 637.15 484.87 L 639.17 491.54 L 640.97 498.3 L 642.51 505.13 L 643.8 512.02 L 644.83 518.97 L 645.57 525.96 L 646.01 532.98 L 646.15 540.01 L 645.99 547.05 L 645.54 554.07 L 644.78 561.07 L 643.74 568.02 L 642.41 574.92 L 640.8 581.74 L 638.9 588.47 L 636.72 595.1 L 634.27 601.61 L 631.54 607.98 L 628.54 614.2 L 625.28 620.26 L 621.75 626.14 L 617.96 631.83 L 613.91 637.3 L 609.61 642.55 L 605.06 647.56 L 600.25 652.32 L 595.2 656.8 L 589.91 661 L 584.38 664.9 L 578.61 668.48 L 572.63 671.75 L 566.45 674.71 L 560.09 677.35 L 553.57 679.68 L 546.92 681.7 L 540.14 683.4 L 533.27 684.79 L 526.31 685.88 L 519.3 686.65 L 512.24 687.11 L 505.16 687.26 L 498.07 687.1 L 491 686.63 L 483.97 685.86 L 476.99 684.77 L 470.09 683.38 L 463.28 681.69 L 456.58 679.68 L 450.02 677.37 L 443.61 674.75 L 437.36 671.83 L 431.3 668.62 L 425.41 665.12 L 419.7 661.35 L 414.19 657.32 L 408.87 653.03 L 403.74 648.52 L 398.81 643.77 L 394.09 638.81 L 389.58 633.64 L 385.28 628.28 L 381.2 622.74 L 377.34 617.03 L 373.71 611.16 L 370.31 605.14 L 367.14 598.99 L 364.2 592.71 L 361.52 586.31 L 359.07 579.81 L 356.88 573.22 L 354.94 566.55 L 353.26 559.81 L 351.85 553.01 L 350.7 546.17 L 349.82 539.28 L 349.2 532.37 L 348.84 525.44 L 348.72 518.5 L 348.84 511.55 L 349.2 504.6 L 349.79 497.66 L 350.6 490.74 L 351.63 483.84 L 352.86 476.98 L 354.29 470.15 L 355.92 463.38 L 357.74 456.66 L 359.74 450.01 L 361.91 443.42 L 364.25 436.92 L 366.75 430.5 L 369.41 424.18 L 372.22 417.96 L 375.16 411.85 L 378.24 405.86 L 381.46 399.99 L 384.81 394.22 L 388.31 388.55 L 391.95 382.96 L 395.75 377.44 L 399.7 371.98 L 403.82 366.57 L 408.1 361.2 L 412.56 355.85 L 417.19 350.52 L 422.01 345.19 L 427.02 339.85 L 432.24 334.49 L 437.84 329.09 L 444.01 323.64 L 450.92 318.13 L 458.05 312.75 L 464.06 307.93 L 467.56 304.09 L 467.88 301.46 L 465.56 299.85 L 461.25 299.06 L 455.61 298.88 Z" fill="#1C1D17"/>
  <path d="M 820.86 178.01 L 816.8 177.66 L 812.09 177.95 L 806.91 178.75 L 801.42 179.88 L 795.8 181.2 L 790.2 182.54 L 784.79 183.77 L 779.6 184.85 L 774.57 185.82 L 769.66 186.74 L 764.82 187.62 L 760 188.53 L 755.16 189.5 L 750.27 190.54 L 745.36 191.65 L 740.41 192.83 L 735.44 194.06 L 730.46 195.36 L 725.47 196.7 L 720.47 198.09 L 715.47 199.52 L 710.49 200.98 L 705.51 202.48 L 700.56 204 L 695.64 205.55 L 690.75 207.11 L 685.89 208.69 L 681.07 210.29 L 676.27 211.9 L 671.5 213.54 L 666.76 215.2 L 662.04 216.88 L 657.34 218.59 L 652.66 220.32 L 648 222.08 L 643.35 223.87 L 638.72 225.68 L 634.1 227.53 L 629.49 229.41 L 624.88 231.33 L 620.28 233.28 L 615.69 235.26 L 611.1 237.28 L 606.5 239.34 L 601.91 241.44 L 597.31 243.58 L 592.7 245.77 L 588.08 247.99 L 583.46 250.27 L 578.82 252.58 L 574.17 254.95 L 569.5 257.36 L 564.82 259.83 L 560.14 262.33 L 555.48 264.87 L 550.85 267.43 L 546.27 270.02 L 541.77 272.61 L 537.35 275.21 L 533.03 277.81 L 528.83 280.4 L 524.77 282.97 L 520.87 285.51 L 517.13 288.02 L 513.59 290.49 L 510.25 292.92 L 507.21 295.26 L 505.31 297.28 L 505.81 298.6 L 509.92 298.87 L 517.26 298.19 L 525.49 297.26 L 532.18 296.79 L 536.21 297.12 L 537.93 298.12 L 537.78 299.69 L 536.17 301.7 L 533.55 304.02 L 530.34 306.52 L 526.85 309.12 L 523.17 311.8 L 519.29 314.55 L 515.26 317.38 L 511.09 320.28 L 506.81 323.25 L 502.44 326.3 L 498.02 329.41 L 493.55 332.58 L 489.08 335.81 L 484.61 339.11 L 480.18 342.46 L 475.81 345.87 L 471.53 349.33 L 467.35 352.84 L 463.3 356.4 L 459.37 360.02 L 455.55 363.69 L 451.83 367.41 L 448.2 371.2 L 444.65 375.05 L 441.17 378.96 L 437.76 382.93 L 434.41 386.98 L 431.1 391.1 L 427.83 395.29 L 424.59 399.56 L 421.36 403.9 L 418.15 408.33 L 414.94 412.84 L 411.74 417.42 L 408.67 421.96 L 405.89 426.27 L 403.6 430.2 L 401.96 433.57 L 401.14 436.2 L 401.33 437.94 L 402.68 438.61 L 405.16 438.26 L 408.57 437.07 L 412.73 435.22 L 417.43 432.9 L 422.47 430.31 L 427.67 427.62 L 432.83 425.03 L 437.9 422.58 L 442.88 420.27 L 447.78 418.09 L 452.62 416.01 L 457.39 414.04 L 462.12 412.15 L 466.8 410.35 L 471.46 408.6 L 476.09 406.92 L 480.72 405.27 L 485.34 403.66 L 489.97 402.06 L 494.62 400.47 L 499.29 398.88 L 503.98 397.29 L 508.69 395.69 L 513.43 394.1 L 518.18 392.49 L 522.94 390.89 L 527.72 389.28 L 532.51 387.67 L 537.32 386.05 L 542.13 384.42 L 546.95 382.79 L 551.78 381.15 L 556.61 379.5 L 561.45 377.84 L 566.28 376.17 L 571.12 374.5 L 575.95 372.81 L 580.79 371.11 L 585.61 369.41 L 590.43 367.69 L 595.25 365.95 L 600.05 364.21 L 604.84 362.45 L 609.62 360.68 L 614.39 358.89 L 619.14 357.09 L 623.87 355.27 L 628.59 353.43 L 633.29 351.57 L 637.97 349.69 L 642.63 347.78 L 647.28 345.84 L 651.9 343.87 L 656.51 341.87 L 661.11 339.83 L 665.68 337.75 L 670.23 335.63 L 674.77 333.47 L 679.29 331.26 L 683.78 329 L 688.26 326.69 L 692.72 324.32 L 697.16 321.9 L 701.58 319.42 L 705.99 316.87 L 710.37 314.27 L 714.73 311.59 L 719.07 308.85 L 723.39 306.03 L 727.69 303.14 L 731.97 300.17 L 736.23 297.13 L 740.47 294 L 744.69 290.78 L 748.88 287.48 L 753.05 284.1 L 757.17 280.64 L 761.25 277.1 L 765.28 273.49 L 769.24 269.81 L 773.13 266.06 L 776.94 262.26 L 780.66 258.39 L 784.28 254.47 L 787.8 250.49 L 791.21 246.47 L 794.5 242.4 L 797.65 238.29 L 800.68 234.14 L 803.55 229.95 L 806.3 225.72 L 808.95 221.41 L 811.55 217.01 L 814.12 212.48 L 816.7 207.81 L 819.32 202.97 L 822.02 197.94 L 824.54 192.89 L 826.4 188.2 L 827.09 184.21 L 826.27 181.2 L 824.1 179.17 Z" fill="#1C1D17"/>
</svg>
