<svg width="51" height="50" viewBox="0 0 51 50" fill="none" xmlns="http://www.w3.org/2000/svg">
<rect x="1" y="0.5" width="49" height="49" rx="10.5" fill="#0B0B0B"/>
<rect x="1" y="0.5" width="49" height="49" rx="10.5" stroke="#232121"/>
<path d="M35.4725 15.8581C38.7105 20.6524 40.3095 26.0604 39.7118 32.2861C39.7093 32.3125 39.6956 32.3367 39.6741 32.3526C37.2221 34.1658 34.8465 35.2662 32.5041 35.996C32.4859 36.0016 32.4663 36.0013 32.4483 35.9951C32.4302 35.989 32.4145 35.9773 32.4034 35.9617C31.8623 35.2034 31.3706 34.404 30.9398 33.5645C30.9151 33.5151 30.9376 33.4555 30.9885 33.436C31.7694 33.1397 32.512 32.7846 33.2262 32.3641C33.2825 32.3309 33.2861 32.2497 33.2341 32.2107C33.0825 32.0974 32.9324 31.9783 32.7887 31.8592C32.7618 31.8372 32.7256 31.8328 32.6951 31.8476C28.0581 34.0041 22.9785 34.0041 18.2866 31.8476C18.2561 31.8339 18.2199 31.8386 18.1938 31.8603C18.0504 31.9794 17.8999 32.0974 17.7497 32.2107C17.6978 32.2497 17.7021 32.3309 17.7587 32.3641C18.4729 32.7766 19.2155 33.1397 19.9953 33.4375C20.0459 33.457 20.0699 33.5151 20.0448 33.5645C19.6233 34.4051 19.1316 35.2045 18.5805 35.9628C18.5564 35.9935 18.517 36.0075 18.4798 35.996C16.1485 35.2662 13.7728 34.1658 11.3208 32.3526C11.3004 32.3367 11.2857 32.3114 11.2836 32.2851C10.784 26.8999 11.8021 21.4472 15.5188 15.857C15.5278 15.8422 15.5414 15.8306 15.5572 15.8238C17.386 14.9785 19.3452 14.3567 21.393 14.0015C21.4303 13.9957 21.4675 14.0131 21.4869 14.0463C21.7399 14.4974 22.0291 15.076 22.2248 15.5488C24.3833 15.2167 26.5755 15.2167 28.7791 15.5488C28.9748 15.0861 29.254 14.4974 29.5059 14.0463C29.5149 14.0298 29.5288 14.0166 29.5457 14.0086C29.5625 14.0005 29.5815 13.9981 29.5998 14.0015C31.6487 14.3577 33.6079 14.9796 35.4353 15.8238C35.4514 15.8306 35.4647 15.8422 35.4725 15.8581V15.8581ZM23.3221 26.0972C23.3447 24.5052 22.1922 23.1879 20.7454 23.1879C19.3105 23.1879 18.169 24.4937 18.169 26.0972C18.169 27.7004 19.333 29.0062 20.7454 29.0062C22.1807 29.0062 23.3221 27.7004 23.3221 26.0972V26.0972ZM32.8485 26.0972C32.8711 24.5052 31.7185 23.1879 30.2721 23.1879C28.8368 23.1879 27.6954 24.4937 27.6954 26.0972C27.6954 27.7004 28.8594 29.0062 30.2721 29.0062C31.7185 29.0062 32.8485 27.7004 32.8485 26.0972V26.0972Z" fill="#8D8D8D"/>
</svg>
