<svg width="461" height="460" viewBox="0 0 461 460" fill="none" xmlns="http://www.w3.org/2000/svg">
<path fill-rule="evenodd" clip-rule="evenodd" d="M30 0H0V30C0 15.8579 0 8.7868 4.3934 4.3934C8.7868 0 15.8579 0 30 0ZM70 0C84.1421 0 91.2132 0 95.6066 4.3934C100 8.7868 100 15.8579 100 30V70C100 84.1421 100 91.2132 95.6066 95.6066C91.2132 100 84.1421 100 70 100H30C15.8579 100 8.7868 100 4.3934 95.6066C0 91.2132 0 84.1421 0 70V150C0 135.858 0 128.787 4.3934 124.393C8.7868 120 15.8579 120 30 120H70C84.1421 120 91.2132 120 95.6066 124.393C100 128.787 100 135.858 100 150V190C100 204.142 100 211.213 95.6066 215.607C91.2132 220 84.1421 220 70 220H30C15.8579 220 8.7868 220 4.3934 215.607C0 211.213 0 204.142 0 190V460H389C374.858 460 367.787 460 363.393 455.607C359 451.213 359 444.142 359 430V390C359 375.858 359 368.787 363.393 364.393C367.787 360 374.858 360 389 360H429C443.142 360 450.213 360 454.607 364.393C459 368.787 459 375.858 459 390V430C459 444.142 459 451.213 454.607 455.607C450.213 460 443.142 460 429 460H461V0H310C324.142 0 331.213 0 335.607 4.3934C340 8.7868 340 15.8579 340 30V70C340 84.1421 340 91.2132 335.607 95.6066C331.213 100 324.142 100 310 100H270C255.858 100 248.787 100 244.393 95.6066C240 91.2132 240 84.1421 240 70V30C240 15.8579 240 8.7868 244.393 4.3934C248.787 0 255.858 0 270 0H70ZM390 121H430C437.099 121 442.323 121.002 446.326 121.54C450.3 122.075 452.92 123.121 454.9 125.101C456.879 127.08 457.925 129.7 458.46 133.674C458.998 137.677 459 142.901 459 150V190C459 197.099 458.998 202.323 458.46 206.326C457.925 210.3 456.879 212.92 454.9 214.9C452.92 216.879 450.3 217.925 446.326 218.46C442.323 218.998 437.099 219 430 219H390C382.901 219 377.677 218.998 373.674 218.46C369.7 217.925 367.08 216.879 365.1 214.9C363.121 212.92 362.075 210.3 361.54 206.326C361.002 202.323 361 197.099 361 190V150C361 142.901 361.002 137.677 361.54 133.674C362.075 129.7 363.121 127.08 365.1 125.101C367.08 123.121 369.7 122.075 373.674 121.54C377.677 121.002 382.901 121 390 121ZM360 150C360 135.858 360 128.787 364.393 124.393C368.787 120 375.858 120 390 120H430C444.142 120 451.213 120 455.607 124.393C460 128.787 460 135.858 460 150V190C460 204.142 460 211.213 455.607 215.607C451.213 220 444.142 220 430 220H390C375.858 220 368.787 220 364.393 215.607C360 211.213 360 204.142 360 190V150ZM430 241H390C382.901 241 377.677 241.002 373.674 241.54C369.7 242.075 367.08 243.121 365.1 245.101C363.121 247.08 362.075 249.7 361.54 253.674C361.002 257.677 361 262.901 361 270V310C361 317.099 361.002 322.323 361.54 326.326C362.075 330.3 363.121 332.92 365.1 334.9C367.08 336.879 369.7 337.925 373.674 338.46C377.677 338.998 382.901 339 390 339H430C437.099 339 442.323 338.998 446.326 338.46C450.3 337.925 452.92 336.879 454.9 334.9C456.879 332.92 457.925 330.3 458.46 326.326C458.998 322.323 459 317.099 459 310V270C459 262.901 458.998 257.677 458.46 253.674C457.925 249.7 456.879 247.08 454.9 245.101C452.92 243.121 450.3 242.075 446.326 241.54C442.323 241.002 437.099 241 430 241ZM364.393 244.393C360 248.787 360 255.858 360 270V310C360 324.142 360 331.213 364.393 335.607C368.787 340 375.858 340 390 340H430C444.142 340 451.213 340 455.607 335.607C460 331.213 460 324.142 460 310V270C460 255.858 460 248.787 455.607 244.393C451.213 240 444.142 240 430 240H390C375.858 240 368.787 240 364.393 244.393ZM389 361H429C436.099 361 441.323 361.002 445.326 361.54C449.3 362.075 451.92 363.121 453.9 365.1C455.879 367.08 456.925 369.7 457.46 373.674C457.998 377.677 458 382.901 458 390V430C458 437.099 457.998 442.323 457.46 446.326C456.925 450.3 455.879 452.92 453.9 454.9C451.92 456.879 449.3 457.925 445.326 458.46C441.323 458.998 436.099 459 429 459H389C381.901 459 376.677 458.998 372.674 458.46C368.7 457.925 366.08 456.879 364.1 454.9C362.121 452.92 361.075 450.3 360.54 446.326C360.002 442.323 360 437.099 360 430V390C360 382.901 360.002 377.677 360.54 373.674C361.075 369.7 362.121 367.08 364.1 365.1C366.08 363.121 368.7 362.075 372.674 361.54C376.677 361.002 381.901 361 389 361ZM70 121H30C22.9007 121 17.6768 121.002 13.6742 121.54C9.70035 122.075 7.08044 123.121 5.1005 125.101C3.12057 127.08 2.07452 129.7 1.54026 133.674C1.00212 137.677 1 142.901 1 150V190C1 197.099 1.00212 202.323 1.54026 206.326C2.07452 210.3 3.12057 212.92 5.1005 214.9C7.08044 216.879 9.70035 217.925 13.6742 218.46C17.6768 218.998 22.9007 219 30 219H70C77.0993 219 82.3232 218.998 86.3258 218.46C90.2997 217.925 92.9196 216.879 94.8995 214.9C96.8794 212.92 97.9255 210.3 98.4597 206.326C98.9979 202.323 99 197.099 99 190V150C99 142.901 98.9979 137.677 98.4597 133.674C97.9255 129.7 96.8794 127.08 94.8995 125.101C92.9196 123.121 90.2997 122.075 86.3258 121.54C82.3232 121.002 77.0993 121 70 121ZM30 1H70C77.0993 1 82.3232 1.00212 86.3258 1.54026C90.2997 2.07452 92.9196 3.12057 94.8995 5.1005C96.8794 7.08044 97.9255 9.70035 98.4597 13.6742C98.9979 17.6768 99 22.9007 99 30V70C99 77.0993 98.9979 82.3232 98.4597 86.3258C97.9255 90.2997 96.8794 92.9196 94.8995 94.8995C92.9196 96.8794 90.2997 97.9255 86.3258 98.4597C82.3232 98.9979 77.0993 99 70 99H30C22.9007 99 17.6768 98.9979 13.6742 98.4597C9.70035 97.9255 7.08044 96.8794 5.1005 94.8995C3.12057 92.9196 2.07452 90.2997 1.54026 86.3258C1.00212 82.3232 1 77.0993 1 70V30C1 22.9007 1.00212 17.6768 1.54026 13.6742C2.07452 9.70035 3.12057 7.08044 5.1005 5.1005C7.08044 3.12057 9.70035 2.07452 13.6742 1.54026C17.6768 1.00212 22.9007 1 30 1ZM190.266 121H150.266C143.166 121 137.942 121.002 133.94 121.54C129.966 122.075 127.346 123.121 125.366 125.101C123.386 127.08 122.34 129.7 121.806 133.674C121.268 137.677 121.266 142.901 121.266 150V190C121.266 197.099 121.268 202.323 121.806 206.326C122.34 210.3 123.386 212.92 125.366 214.9C127.346 216.879 129.966 217.925 133.94 218.46C137.942 218.998 143.166 219 150.266 219H190.266C197.365 219 202.589 218.998 206.591 218.46C210.565 217.925 213.185 216.879 215.165 214.9C217.145 212.92 218.191 210.3 218.725 206.326C219.264 202.323 219.266 197.099 219.266 190V150C219.266 142.901 219.264 137.677 218.725 133.674C218.191 129.7 217.145 127.08 215.165 125.101C213.185 123.121 210.565 122.075 206.591 121.54C202.589 121.002 197.365 121 190.266 121ZM124.659 124.393C120.266 128.787 120.266 135.858 120.266 150V190C120.266 204.142 120.266 211.213 124.659 215.607C129.052 220 136.123 220 150.266 220H190.266C204.408 220 211.479 220 215.872 215.607C220.266 211.213 220.266 204.142 220.266 190V150C220.266 135.858 220.266 128.787 215.872 124.393C211.479 120 204.408 120 190.266 120H150.266C136.123 120 129.052 120 124.659 124.393ZM150.266 241H190.266C197.365 241 202.589 241.002 206.591 241.54C210.565 242.075 213.185 243.121 215.165 245.101C217.145 247.08 218.191 249.7 218.725 253.674C219.264 257.677 219.266 262.901 219.266 270V310C219.266 317.099 219.264 322.323 218.725 326.326C218.191 330.3 217.145 332.92 215.165 334.9C213.185 336.879 210.565 337.925 206.591 338.46C202.589 338.998 197.365 339 190.266 339H150.266C143.166 339 137.942 338.998 133.94 338.46C129.966 337.925 127.346 336.879 125.366 334.9C123.386 332.92 122.34 330.3 121.806 326.326C121.268 322.323 121.266 317.099 121.266 310V270C121.266 262.901 121.268 257.677 121.806 253.674C122.34 249.7 123.386 247.08 125.366 245.101C127.346 243.121 129.966 242.075 133.94 241.54C137.942 241.002 143.166 241 150.266 241ZM120.266 270C120.266 255.858 120.266 248.787 124.659 244.393C129.052 240 136.123 240 150.266 240H190.266C204.408 240 211.479 240 215.872 244.393C220.266 248.787 220.266 255.858 220.266 270V310C220.266 324.142 220.266 331.213 215.872 335.607C211.479 340 204.408 340 190.266 340H150.266C136.123 340 129.052 340 124.659 335.607C120.266 331.213 120.266 324.142 120.266 310V270ZM312.75 241H272.75C265.651 241 260.427 241.002 256.424 241.54C252.45 242.075 249.83 243.121 247.851 245.101C245.871 247.08 244.825 249.7 244.29 253.674C243.752 257.677 243.75 262.901 243.75 270V310C243.75 317.099 243.752 322.323 244.29 326.326C244.825 330.3 245.871 332.92 247.851 334.9C249.83 336.879 252.45 337.925 256.424 338.46C260.427 338.998 265.651 339 272.75 339H312.75C319.849 339 325.073 338.998 329.076 338.46C333.05 337.925 335.67 336.879 337.65 334.9C339.629 332.92 340.675 330.3 341.21 326.326C341.748 322.323 341.75 317.099 341.75 310V270C341.75 262.901 341.748 257.677 341.21 253.674C340.675 249.7 339.629 247.08 337.65 245.101C335.67 243.121 333.05 242.075 329.076 241.54C325.073 241.002 319.849 241 312.75 241ZM247.143 244.393C242.75 248.787 242.75 255.858 242.75 270V310C242.75 324.142 242.75 331.213 247.143 335.607C251.537 340 258.608 340 272.75 340H312.75C326.892 340 333.963 340 338.357 335.607C342.75 331.213 342.75 324.142 342.75 310V270C342.75 255.858 342.75 248.787 338.357 244.393C333.963 240 326.892 240 312.75 240H272.75C258.608 240 251.537 240 247.143 244.393ZM270 1H310C317.099 1 322.323 1.00212 326.326 1.54026C330.3 2.07452 332.92 3.12057 334.9 5.1005C336.879 7.08044 337.925 9.70035 338.46 13.6742C338.998 17.6768 339 22.9007 339 30V70C339 77.0993 338.998 82.3232 338.46 86.3258C337.925 90.2997 336.879 92.9196 334.9 94.8995C332.92 96.8794 330.3 97.9255 326.326 98.4597C322.323 98.9979 317.099 99 310 99H270C262.901 99 257.677 98.9979 253.674 98.4597C249.7 97.9255 247.08 96.8794 245.101 94.8995C243.121 92.9196 242.075 90.2997 241.54 86.3258C241.002 82.3232 241 77.0993 241 70V30C241 22.9007 241.002 17.6768 241.54 13.6742C242.075 9.70035 243.121 7.08044 245.101 5.1005C247.08 3.12057 249.7 2.07452 253.674 1.54026C257.677 1.00212 262.901 1 270 1Z" fill="black"/>
<path d="M29.784 56.74C28.6373 56.74 27.6693 56.4867 26.88 55.98C26.0907 55.468 25.4933 54.7613 25.088 53.86C24.6827 52.9587 24.48 51.9187 24.48 50.74C24.48 49.5613 24.6827 48.5213 25.088 47.62C25.4933 46.7187 26.0907 46.0147 26.88 45.508C27.6693 44.996 28.6373 44.74 29.784 44.74C31.1227 44.74 32.216 45.084 33.064 45.772C33.912 46.4547 34.4933 47.372 34.808 48.524L33.608 48.836C33.3627 47.924 32.9227 47.2013 32.288 46.668C31.6533 46.1347 30.8187 45.868 29.784 45.868C28.8827 45.868 28.1333 46.0733 27.536 46.484C26.9387 46.8947 26.488 47.468 26.184 48.204C25.8853 48.9347 25.7307 49.78 25.72 50.74C25.7147 51.7 25.8613 52.5453 26.16 53.276C26.464 54.0067 26.9173 54.58 27.52 54.996C28.128 55.4067 28.8827 55.612 29.784 55.612C30.8187 55.612 31.6533 55.3453 32.288 54.812C32.9227 54.2733 33.3627 53.5507 33.608 52.644L34.808 52.956C34.4933 54.108 33.912 55.028 33.064 55.716C32.216 56.3987 31.1227 56.74 29.784 56.74ZM36.5731 56.5V47.86H37.6291V49.94L37.4211 49.668C37.5171 49.412 37.6425 49.1773 37.7971 48.964C37.9518 48.7453 38.1198 48.5667 38.3011 48.428C38.5251 48.2307 38.7865 48.0813 39.0851 47.98C39.3838 47.8733 39.6851 47.812 39.9891 47.796C40.2931 47.7747 40.5705 47.796 40.8211 47.86V48.964C40.5065 48.884 40.1625 48.8653 39.7891 48.908C39.4158 48.9507 39.0718 49.1 38.7571 49.356C38.4691 49.58 38.2531 49.8493 38.1091 50.164C37.9651 50.4733 37.8691 50.804 37.8211 51.156C37.7731 51.5027 37.7491 51.8467 37.7491 52.188V56.5H36.5731ZM43.4614 60.34L45.1334 55.804L45.1574 57.148L41.3734 47.86H42.6214L45.7254 55.628H45.2134L48.0774 47.86H49.2774L44.6374 60.34H43.4614ZM54.5469 56.74C53.7522 56.74 53.0802 56.54 52.5309 56.14C51.9815 55.7347 51.5655 55.188 51.2829 54.5C51.0002 53.8067 50.8589 53.0307 50.8589 52.172C50.8589 51.2973 51.0002 50.5187 51.2829 49.836C51.5709 49.148 51.9922 48.6067 52.5469 48.212C53.1015 47.8173 53.7842 47.62 54.5949 47.62C55.3842 47.62 56.0615 47.82 56.6269 48.22C57.1922 48.62 57.6242 49.164 57.9229 49.852C58.2269 50.54 58.3789 51.3133 58.3789 52.172C58.3789 53.036 58.2269 53.812 57.9229 54.5C57.6189 55.188 57.1815 55.7347 56.6109 56.14C56.0402 56.54 55.3522 56.74 54.5469 56.74ZM50.6589 60.34V47.86H51.7149V54.364H51.8429V60.34H50.6589ZM54.4269 55.644C55.0295 55.644 55.5309 55.492 55.9309 55.188C56.3309 54.884 56.6295 54.4707 56.8269 53.948C57.0295 53.42 57.1309 52.828 57.1309 52.172C57.1309 51.5213 57.0322 50.9347 56.8349 50.412C56.6375 49.8893 56.3362 49.476 55.9309 49.172C55.5309 48.868 55.0215 48.716 54.4029 48.716C53.8002 48.716 53.2989 48.8627 52.8989 49.156C52.5042 49.4493 52.2082 49.8573 52.0109 50.38C51.8135 50.8973 51.7149 51.4947 51.7149 52.172C51.7149 52.8387 51.8135 53.436 52.0109 53.964C52.2082 54.4867 52.5069 54.8973 52.9069 55.196C53.3069 55.4947 53.8135 55.644 54.4269 55.644ZM64.8396 56.5C64.3543 56.6013 63.8743 56.6413 63.3996 56.62C62.9303 56.5987 62.509 56.4973 62.1356 56.316C61.7676 56.1347 61.4876 55.852 61.2956 55.468C61.141 55.148 61.0556 54.8253 61.0396 54.5C61.029 54.1693 61.0236 53.7933 61.0236 53.372V45.46H62.1916V53.324C62.1916 53.6867 62.1943 53.9907 62.1996 54.236C62.2103 54.476 62.2663 54.6893 62.3676 54.876C62.5596 55.2333 62.8636 55.4467 63.2796 55.516C63.701 55.5853 64.221 55.5693 64.8396 55.468V56.5ZM59.1756 48.868V47.86H64.8396V48.868H59.1756ZM69.8374 56.74C68.9787 56.74 68.2454 56.5453 67.6374 56.156C67.0294 55.7667 66.5627 55.228 66.2374 54.54C65.912 53.852 65.7494 53.0627 65.7494 52.172C65.7494 51.2653 65.9147 50.4707 66.2454 49.788C66.576 49.1053 67.0454 48.5747 67.6534 48.196C68.2667 47.812 68.9947 47.62 69.8374 47.62C70.7014 47.62 71.4374 47.8147 72.0454 48.204C72.6587 48.588 73.1254 49.124 73.4454 49.812C73.7707 50.4947 73.9334 51.2813 73.9334 52.172C73.9334 53.0787 73.7707 53.876 73.4454 54.564C73.12 55.2467 72.6507 55.78 72.0374 56.164C71.424 56.548 70.6907 56.74 69.8374 56.74ZM69.8374 55.612C70.7974 55.612 71.512 55.2947 71.9814 54.66C72.4507 54.02 72.6854 53.1907 72.6854 52.172C72.6854 51.1267 72.448 50.2947 71.9734 49.676C71.504 49.0573 70.792 48.748 69.8374 48.748C69.192 48.748 68.6587 48.8947 68.2374 49.188C67.8214 49.476 67.5094 49.8787 67.3014 50.396C67.0987 50.908 66.9974 51.5 66.9974 52.172C66.9974 53.212 67.2374 54.0467 67.7174 54.676C68.1974 55.3 68.904 55.612 69.8374 55.612Z" fill="#434343"/>
<path d="M147.858 176.5L144.53 164.98H145.754L148.45 174.492L151.13 164.988L152.362 164.98L155.058 174.492L157.738 164.98H158.97L155.65 176.5H154.466L151.746 167.052L149.042 176.5H147.858ZM163.057 176.74C162.215 176.74 161.484 176.553 160.865 176.18C160.252 175.807 159.775 175.281 159.433 174.604C159.092 173.927 158.921 173.132 158.921 172.22C158.921 171.276 159.089 170.46 159.425 169.772C159.761 169.084 160.233 168.553 160.841 168.18C161.455 167.807 162.177 167.62 163.009 167.62C163.863 167.62 164.591 167.817 165.193 168.212C165.796 168.601 166.252 169.161 166.561 169.892C166.871 170.623 167.012 171.495 166.985 172.508H165.785V172.092C165.764 170.972 165.521 170.127 165.057 169.556C164.599 168.985 163.927 168.7 163.041 168.7C162.113 168.7 161.401 169.001 160.905 169.604C160.415 170.207 160.169 171.065 160.169 172.18C160.169 173.268 160.415 174.113 160.905 174.716C161.401 175.313 162.103 175.612 163.009 175.612C163.628 175.612 164.167 175.471 164.625 175.188C165.089 174.9 165.455 174.487 165.721 173.948L166.817 174.372C166.476 175.124 165.972 175.708 165.305 176.124C164.644 176.535 163.895 176.74 163.057 176.74ZM159.753 172.508V171.524H166.353V172.508H159.753ZM172.641 176.74C171.846 176.74 171.174 176.54 170.625 176.14C170.076 175.735 169.66 175.188 169.377 174.5C169.094 173.807 168.953 173.031 168.953 172.172C168.953 171.297 169.094 170.519 169.377 169.836C169.665 169.148 170.086 168.607 170.641 168.212C171.196 167.817 171.878 167.62 172.689 167.62C173.478 167.62 174.156 167.82 174.721 168.22C175.286 168.62 175.718 169.164 176.017 169.852C176.321 170.54 176.473 171.313 176.473 172.172C176.473 173.036 176.321 173.812 176.017 174.5C175.713 175.188 175.276 175.735 174.705 176.14C174.134 176.54 173.446 176.74 172.641 176.74ZM168.753 176.5V164.98H169.937V169.996H169.809V176.5H168.753ZM172.521 175.644C173.124 175.644 173.625 175.492 174.025 175.188C174.425 174.884 174.724 174.471 174.921 173.948C175.124 173.42 175.225 172.828 175.225 172.172C175.225 171.521 175.126 170.935 174.929 170.412C174.732 169.889 174.43 169.476 174.025 169.172C173.625 168.868 173.116 168.716 172.497 168.716C171.894 168.716 171.393 168.863 170.993 169.156C170.598 169.449 170.302 169.857 170.105 170.38C169.908 170.897 169.809 171.495 169.809 172.172C169.809 172.839 169.908 173.436 170.105 173.964C170.302 174.487 170.601 174.897 171.001 175.196C171.401 175.495 171.908 175.644 172.521 175.644ZM184.529 176.732C183.958 176.732 183.433 176.631 182.953 176.428C182.473 176.225 182.059 175.937 181.713 175.564C181.366 175.185 181.113 174.735 180.953 174.212L182.073 173.876C182.265 174.447 182.579 174.879 183.017 175.172C183.459 175.465 183.958 175.607 184.513 175.596C185.025 175.585 185.465 175.471 185.833 175.252C186.206 175.033 186.491 174.729 186.689 174.34C186.886 173.951 186.985 173.5 186.985 172.988C186.985 172.204 186.755 171.575 186.297 171.1C185.843 170.62 185.243 170.38 184.497 170.38C184.289 170.38 184.07 170.409 183.841 170.468C183.611 170.521 183.398 170.599 183.201 170.7L182.609 169.764L187.089 165.628L187.281 166.108H181.409V164.98H188.065V166.124L184.161 169.852L184.145 169.388C184.945 169.287 185.649 169.377 186.257 169.66C186.865 169.943 187.339 170.375 187.681 170.956C188.027 171.532 188.201 172.209 188.201 172.988C188.201 173.724 188.041 174.375 187.721 174.94C187.406 175.5 186.971 175.94 186.417 176.26C185.862 176.575 185.233 176.732 184.529 176.732Z" fill="#434343"/>
<path d="M149.002 296.74C148.191 296.74 147.461 296.599 146.81 296.316C146.159 296.033 145.605 295.631 145.146 295.108C144.693 294.585 144.346 293.956 144.106 293.22C143.866 292.479 143.746 291.652 143.746 290.74C143.746 289.535 143.954 288.484 144.37 287.588C144.791 286.687 145.394 285.988 146.178 285.492C146.962 284.996 147.903 284.748 149.002 284.748C150.229 284.748 151.226 285.036 151.994 285.612C152.767 286.183 153.306 286.951 153.61 287.916L152.426 288.204C152.175 287.5 151.762 286.937 151.186 286.516C150.615 286.095 149.903 285.884 149.05 285.884C148.149 285.879 147.399 286.081 146.802 286.492C146.205 286.897 145.754 287.468 145.45 288.204C145.151 288.935 144.999 289.78 144.994 290.74C144.989 291.7 145.135 292.545 145.434 293.276C145.738 294.001 146.191 294.572 146.794 294.988C147.397 295.399 148.149 295.607 149.05 295.612C149.877 295.612 150.559 295.452 151.098 295.132C151.637 294.812 152.045 294.353 152.322 293.756C152.605 293.159 152.765 292.452 152.802 291.636H150.146V290.628H154.034C154.05 290.751 154.058 290.881 154.058 291.02C154.063 291.153 154.066 291.249 154.066 291.308C154.066 292.348 153.879 293.279 153.506 294.1C153.133 294.916 152.57 295.561 151.818 296.036C151.071 296.505 150.133 296.74 149.002 296.74ZM158.139 296.74C157.488 296.74 156.942 296.623 156.499 296.388C156.062 296.153 155.734 295.841 155.515 295.452C155.296 295.063 155.187 294.639 155.187 294.18C155.187 293.711 155.28 293.311 155.467 292.98C155.659 292.644 155.918 292.369 156.243 292.156C156.574 291.943 156.955 291.78 157.387 291.668C157.824 291.561 158.307 291.468 158.835 291.388C159.368 291.303 159.888 291.231 160.395 291.172C160.907 291.108 161.355 291.047 161.739 290.988L161.323 291.244C161.339 290.391 161.174 289.759 160.827 289.348C160.48 288.937 159.878 288.732 159.019 288.732C158.427 288.732 157.926 288.865 157.515 289.132C157.11 289.399 156.824 289.82 156.659 290.396L155.515 290.06C155.712 289.287 156.11 288.687 156.707 288.26C157.304 287.833 158.08 287.62 159.035 287.62C159.824 287.62 160.494 287.769 161.043 288.068C161.598 288.361 161.99 288.788 162.219 289.348C162.326 289.599 162.395 289.879 162.427 290.188C162.459 290.497 162.475 290.812 162.475 291.132V296.5H161.427V294.332L161.731 294.46C161.438 295.201 160.982 295.767 160.363 296.156C159.744 296.545 159.003 296.74 158.139 296.74ZM158.275 295.724C158.824 295.724 159.304 295.625 159.715 295.428C160.126 295.231 160.456 294.961 160.707 294.62C160.958 294.273 161.12 293.884 161.195 293.452C161.259 293.175 161.294 292.871 161.299 292.54C161.304 292.204 161.307 291.953 161.307 291.788L161.755 292.02C161.355 292.073 160.92 292.127 160.451 292.18C159.987 292.233 159.528 292.295 159.075 292.364C158.627 292.433 158.222 292.516 157.859 292.612C157.614 292.681 157.376 292.78 157.147 292.908C156.918 293.031 156.728 293.196 156.579 293.404C156.435 293.612 156.363 293.871 156.363 294.18C156.363 294.431 156.424 294.673 156.547 294.908C156.675 295.143 156.878 295.337 157.155 295.492C157.438 295.647 157.811 295.724 158.275 295.724ZM174.862 296.5L174.87 290.828C174.87 290.161 174.683 289.639 174.31 289.26C173.942 288.876 173.472 288.684 172.902 288.684C172.576 288.684 172.259 288.759 171.95 288.908C171.64 289.057 171.384 289.297 171.182 289.628C170.984 289.959 170.886 290.391 170.886 290.924L170.19 290.724C170.174 290.105 170.294 289.564 170.55 289.1C170.811 288.636 171.168 288.276 171.622 288.02C172.08 287.759 172.598 287.628 173.174 287.628C174.043 287.628 174.739 287.897 175.262 288.436C175.784 288.969 176.046 289.692 176.046 290.604L176.038 296.5H174.862ZM164.55 296.5V287.86H165.606V289.988H165.734V296.5H164.55ZM169.718 296.5L169.726 290.908C169.726 290.22 169.542 289.679 169.174 289.284C168.811 288.884 168.331 288.684 167.734 288.684C167.136 288.684 166.654 288.889 166.286 289.3C165.918 289.705 165.734 290.247 165.734 290.924L165.03 290.54C165.03 289.985 165.16 289.489 165.422 289.052C165.683 288.609 166.04 288.263 166.494 288.012C166.947 287.756 167.462 287.628 168.038 287.628C168.587 287.628 169.075 287.745 169.502 287.98C169.934 288.215 170.272 288.556 170.518 289.004C170.763 289.452 170.886 289.996 170.886 290.636L170.878 296.5H169.718ZM181.714 296.74C180.871 296.74 180.14 296.553 179.522 296.18C178.908 295.807 178.431 295.281 178.09 294.604C177.748 293.927 177.578 293.132 177.578 292.22C177.578 291.276 177.746 290.46 178.082 289.772C178.418 289.084 178.89 288.553 179.498 288.18C180.111 287.807 180.834 287.62 181.666 287.62C182.519 287.62 183.247 287.817 183.85 288.212C184.452 288.601 184.908 289.161 185.218 289.892C185.527 290.623 185.668 291.495 185.642 292.508H184.442V292.092C184.42 290.972 184.178 290.127 183.714 289.556C183.255 288.985 182.583 288.7 181.698 288.7C180.77 288.7 180.058 289.001 179.562 289.604C179.071 290.207 178.826 291.065 178.826 292.18C178.826 293.268 179.071 294.113 179.562 294.716C180.058 295.313 180.759 295.612 181.666 295.612C182.284 295.612 182.823 295.471 183.282 295.188C183.746 294.9 184.111 294.487 184.378 293.948L185.474 294.372C185.132 295.124 184.628 295.708 183.962 296.124C183.3 296.535 182.551 296.74 181.714 296.74ZM178.41 292.508V291.524H185.01V292.508H178.41ZM188.273 296.5V287.22C188.273 286.996 188.284 286.775 188.305 286.556C188.332 286.337 188.382 286.129 188.457 285.932C188.532 285.729 188.649 285.543 188.809 285.372C188.985 285.18 189.177 285.041 189.385 284.956C189.593 284.865 189.809 284.807 190.033 284.78C190.262 284.753 190.486 284.74 190.705 284.74H191.809V285.732H190.785C190.337 285.732 190.001 285.841 189.777 286.06C189.558 286.279 189.449 286.623 189.449 287.092V296.5H188.273ZM186.777 288.868V287.86H191.809V288.868H186.777ZM193.489 286.22V284.9H194.665V286.22H193.489ZM193.489 296.5V287.86H194.665V296.5H193.489Z" fill="#434343"/>
<path d="M253.87 296.5V284.98H254.95L259.478 294.668L263.982 284.98H265.078V296.492H263.958V287.604L259.854 296.5H259.094L254.998 287.604V296.5H253.87ZM270.979 296.74C270.136 296.74 269.406 296.553 268.787 296.18C268.174 295.807 267.696 295.281 267.355 294.604C267.014 293.927 266.843 293.132 266.843 292.22C266.843 291.276 267.011 290.46 267.347 289.772C267.683 289.084 268.155 288.553 268.763 288.18C269.376 287.807 270.099 287.62 270.931 287.62C271.784 287.62 272.512 287.817 273.115 288.212C273.718 288.601 274.174 289.161 274.483 289.892C274.792 290.623 274.934 291.495 274.907 292.508H273.707V292.092C273.686 290.972 273.443 290.127 272.979 289.556C272.52 288.985 271.848 288.7 270.963 288.7C270.035 288.7 269.323 289.001 268.827 289.604C268.336 290.207 268.091 291.065 268.091 292.18C268.091 293.268 268.336 294.113 268.827 294.716C269.323 295.313 270.024 295.612 270.931 295.612C271.55 295.612 272.088 295.471 272.547 295.188C273.011 294.9 273.376 294.487 273.643 293.948L274.739 294.372C274.398 295.124 273.894 295.708 273.227 296.124C272.566 296.535 271.816 296.74 270.979 296.74ZM267.675 292.508V291.524H274.275V292.508H267.675ZM281.387 296.5C280.901 296.601 280.421 296.641 279.947 296.62C279.477 296.599 279.056 296.497 278.683 296.316C278.315 296.135 278.035 295.852 277.843 295.468C277.688 295.148 277.603 294.825 277.587 294.5C277.576 294.169 277.571 293.793 277.571 293.372V285.46H278.739V293.324C278.739 293.687 278.741 293.991 278.747 294.236C278.757 294.476 278.813 294.689 278.915 294.876C279.107 295.233 279.411 295.447 279.827 295.516C280.248 295.585 280.768 295.569 281.387 295.468V296.5ZM275.723 288.868V287.86H281.387V288.868H275.723ZM285.561 296.74C284.91 296.74 284.363 296.623 283.921 296.388C283.483 296.153 283.155 295.841 282.937 295.452C282.718 295.063 282.609 294.639 282.609 294.18C282.609 293.711 282.702 293.311 282.889 292.98C283.081 292.644 283.339 292.369 283.665 292.156C283.995 291.943 284.377 291.78 284.809 291.668C285.246 291.561 285.729 291.468 286.257 291.388C286.79 291.303 287.31 291.231 287.817 291.172C288.329 291.108 288.777 291.047 289.161 290.988L288.745 291.244C288.761 290.391 288.595 289.759 288.249 289.348C287.902 288.937 287.299 288.732 286.441 288.732C285.849 288.732 285.347 288.865 284.937 289.132C284.531 289.399 284.246 289.82 284.081 290.396L282.937 290.06C283.134 289.287 283.531 288.687 284.129 288.26C284.726 287.833 285.502 287.62 286.457 287.62C287.246 287.62 287.915 287.769 288.465 288.068C289.019 288.361 289.411 288.788 289.641 289.348C289.747 289.599 289.817 289.879 289.849 290.188C289.881 290.497 289.897 290.812 289.897 291.132V296.5H288.849V294.332L289.153 294.46C288.859 295.201 288.403 295.767 287.785 296.156C287.166 296.545 286.425 296.74 285.561 296.74ZM285.697 295.724C286.246 295.724 286.726 295.625 287.137 295.428C287.547 295.231 287.878 294.961 288.129 294.62C288.379 294.273 288.542 293.884 288.617 293.452C288.681 293.175 288.715 292.871 288.721 292.54C288.726 292.204 288.729 291.953 288.729 291.788L289.177 292.02C288.777 292.073 288.342 292.127 287.873 292.18C287.409 292.233 286.95 292.295 286.497 292.364C286.049 292.433 285.643 292.516 285.281 292.612C285.035 292.681 284.798 292.78 284.569 292.908C284.339 293.031 284.15 293.196 284.001 293.404C283.857 293.612 283.785 293.871 283.785 294.18C283.785 294.431 283.846 294.673 283.969 294.908C284.097 295.143 284.299 295.337 284.577 295.492C284.859 295.647 285.233 295.724 285.697 295.724ZM294.003 296.5L290.867 287.86H292.059L294.611 294.964L297.147 287.86H298.355L295.219 296.5H294.003ZM303.135 296.74C302.293 296.74 301.562 296.553 300.943 296.18C300.33 295.807 299.853 295.281 299.511 294.604C299.17 293.927 298.999 293.132 298.999 292.22C298.999 291.276 299.167 290.46 299.503 289.772C299.839 289.084 300.311 288.553 300.919 288.18C301.533 287.807 302.255 287.62 303.087 287.62C303.941 287.62 304.669 287.817 305.271 288.212C305.874 288.601 306.33 289.161 306.639 289.892C306.949 290.623 307.09 291.495 307.063 292.508H305.863V292.092C305.842 290.972 305.599 290.127 305.135 289.556C304.677 288.985 304.005 288.7 303.119 288.7C302.191 288.7 301.479 289.001 300.983 289.604C300.493 290.207 300.247 291.065 300.247 292.18C300.247 293.268 300.493 294.113 300.983 294.716C301.479 295.313 302.181 295.612 303.087 295.612C303.706 295.612 304.245 295.471 304.703 295.188C305.167 294.9 305.533 294.487 305.799 293.948L306.895 294.372C306.554 295.124 306.05 295.708 305.383 296.124C304.722 296.535 303.973 296.74 303.135 296.74ZM299.831 292.508V291.524H306.431V292.508H299.831ZM308.839 296.5V287.86H309.895V289.94L309.687 289.668C309.783 289.412 309.908 289.177 310.063 288.964C310.217 288.745 310.385 288.567 310.567 288.428C310.791 288.231 311.052 288.081 311.351 287.98C311.649 287.873 311.951 287.812 312.255 287.796C312.559 287.775 312.836 287.796 313.087 287.86V288.964C312.772 288.884 312.428 288.865 312.055 288.908C311.681 288.951 311.337 289.1 311.023 289.356C310.735 289.58 310.519 289.849 310.375 290.164C310.231 290.473 310.135 290.804 310.087 291.156C310.039 291.503 310.015 291.847 310.015 292.188V296.5H308.839ZM317.516 296.732C316.503 296.732 315.668 296.513 315.012 296.076C314.361 295.639 313.961 295.031 313.812 294.252L315.012 294.052C315.14 294.543 315.431 294.935 315.884 295.228C316.343 295.516 316.908 295.66 317.58 295.66C318.236 295.66 318.753 295.524 319.132 295.252C319.511 294.975 319.7 294.599 319.7 294.124C319.7 293.857 319.639 293.641 319.516 293.476C319.399 293.305 319.156 293.148 318.788 293.004C318.42 292.86 317.871 292.689 317.14 292.492C316.356 292.279 315.743 292.065 315.3 291.852C314.857 291.639 314.543 291.393 314.356 291.116C314.169 290.833 314.076 290.489 314.076 290.084C314.076 289.593 314.215 289.164 314.492 288.796C314.769 288.423 315.153 288.135 315.644 287.932C316.135 287.724 316.705 287.62 317.356 287.62C318.007 287.62 318.588 287.727 319.1 287.94C319.617 288.148 320.033 288.441 320.348 288.82C320.663 289.199 320.849 289.639 320.908 290.14L319.708 290.356C319.628 289.849 319.375 289.449 318.948 289.156C318.527 288.857 317.991 288.703 317.34 288.692C316.727 288.676 316.228 288.793 315.844 289.044C315.46 289.289 315.268 289.617 315.268 290.028C315.268 290.257 315.337 290.455 315.476 290.62C315.615 290.78 315.865 290.932 316.228 291.076C316.596 291.22 317.119 291.377 317.796 291.548C318.591 291.751 319.215 291.964 319.668 292.188C320.121 292.412 320.444 292.676 320.636 292.98C320.828 293.284 320.924 293.66 320.924 294.108C320.924 294.924 320.62 295.567 320.012 296.036C319.409 296.5 318.577 296.732 317.516 296.732ZM326.354 296.74C325.511 296.74 324.781 296.553 324.162 296.18C323.549 295.807 323.071 295.281 322.73 294.604C322.389 293.927 322.218 293.132 322.218 292.22C322.218 291.276 322.386 290.46 322.722 289.772C323.058 289.084 323.53 288.553 324.138 288.18C324.751 287.807 325.474 287.62 326.306 287.62C327.159 287.62 327.887 287.817 328.49 288.212C329.093 288.601 329.549 289.161 329.858 289.892C330.167 290.623 330.309 291.495 330.282 292.508H329.082V292.092C329.061 290.972 328.818 290.127 328.354 289.556C327.895 288.985 327.223 288.7 326.338 288.7C325.41 288.7 324.698 289.001 324.202 289.604C323.711 290.207 323.466 291.065 323.466 292.18C323.466 293.268 323.711 294.113 324.202 294.716C324.698 295.313 325.399 295.612 326.306 295.612C326.925 295.612 327.463 295.471 327.922 295.188C328.386 294.9 328.751 294.487 329.018 293.948L330.114 294.372C329.773 295.124 329.269 295.708 328.602 296.124C327.941 296.535 327.191 296.74 326.354 296.74ZM323.05 292.508V291.524H329.65V292.508H323.05Z" fill="#434343"/>
<path d="M274.667 56.5V44.98H278.163C278.286 44.98 278.494 44.9827 278.787 44.988C279.086 44.9933 279.371 45.0147 279.643 45.052C280.518 45.1747 281.248 45.5 281.835 46.028C282.422 46.556 282.862 47.228 283.155 48.044C283.448 48.86 283.595 49.7587 283.595 50.74C283.595 51.7213 283.448 52.62 283.155 53.436C282.862 54.252 282.422 54.924 281.835 55.452C281.248 55.98 280.518 56.3053 279.643 56.428C279.376 56.46 279.091 56.4813 278.787 56.492C278.483 56.4973 278.275 56.5 278.163 56.5H274.667ZM275.883 55.372H278.163C278.382 55.372 278.616 55.3667 278.867 55.356C279.123 55.34 279.342 55.3133 279.523 55.276C280.195 55.1587 280.736 54.8867 281.147 54.46C281.563 54.0333 281.867 53.5 282.059 52.86C282.251 52.2147 282.347 51.508 282.347 50.74C282.347 49.9667 282.251 49.2573 282.059 48.612C281.867 47.9667 281.563 47.4333 281.147 47.012C280.731 46.5907 280.19 46.3213 279.523 46.204C279.342 46.1667 279.12 46.1427 278.859 46.132C278.603 46.116 278.371 46.108 278.163 46.108H275.883V55.372ZM289.073 56.74C288.23 56.74 287.5 56.5533 286.881 56.18C286.268 55.8067 285.79 55.2813 285.449 54.604C285.108 53.9267 284.937 53.132 284.937 52.22C284.937 51.276 285.105 50.46 285.441 49.772C285.777 49.084 286.249 48.5533 286.857 48.18C287.47 47.8067 288.193 47.62 289.025 47.62C289.878 47.62 290.606 47.8173 291.209 48.212C291.812 48.6013 292.268 49.1613 292.577 49.892C292.886 50.6227 293.028 51.4947 293.001 52.508H291.801V52.092C291.78 50.972 291.537 50.1267 291.073 49.556C290.614 48.9853 289.942 48.7 289.057 48.7C288.129 48.7 287.417 49.0013 286.921 49.604C286.43 50.2067 286.185 51.0653 286.185 52.18C286.185 53.268 286.43 54.1133 286.921 54.716C287.417 55.3133 288.118 55.612 289.025 55.612C289.644 55.612 290.182 55.4707 290.641 55.188C291.105 54.9 291.47 54.4867 291.737 53.948L292.833 54.372C292.492 55.124 291.988 55.708 291.321 56.124C290.66 56.5347 289.91 56.74 289.073 56.74ZM285.769 52.508V51.524H292.369V52.508H285.769ZM294.776 56.5V44.98H301.392V46.156H295.952V50.156H300.432V51.324H295.952V56.5H294.776ZM302.999 46.22V44.9H304.175V46.22H302.999ZM302.999 56.5V47.86H304.175V56.5H302.999Z" fill="#434343"/>
</svg>
