<svg xmlns="http://www.w3.org/2000/svg" width="29" height="29" viewBox="0 0 29 29" fill="#838383">
  <path d="M8.80762 6.62515C8.80732 7.22189 8.56998 7.79406 8.14781 8.21581C7.72564 8.63756 7.15323 8.87432 6.55649 8.87402C5.95976 8.87373 5.38758 8.63639 4.96583 8.21422C4.54409 7.79205 4.30732 7.21964 4.30762 6.6229C4.30792 6.02616 4.54525 5.45398 4.96742 5.03224C5.38959 4.61049 5.96201 4.37373 6.55874 4.37402C7.15548 4.37432 7.72766 4.61166 8.1494 5.03383C8.57115 5.456 8.80792 6.02841 8.80762 6.62515ZM8.87512 10.5401H4.37512V24.6251H8.87512V10.5401ZM15.9851 10.5401H11.5076V24.6251H15.9401V17.2339C15.9401 13.1164 21.3064 12.7339 21.3064 17.2339V24.6251H25.7501V15.7039C25.7501 8.76265 17.8076 9.0214 15.9401 12.4301L15.9851 10.5401Z" fill="#838383"></path>
</svg>