<svg xmlns="http://www.w3.org/2000/svg" width="30" height="30" viewBox="0 0 30 30" fill="#838383">
  <path d="M15 4C12.0149 4 11.6395 4.01375 10.4666 4.066C9.29375 4.121 8.49488 4.30525 7.795 4.5775C7.06088 4.85363 6.39593 5.28676 5.84663 5.84663C5.2871 6.39621 4.85402 7.06108 4.5775 7.795C4.30525 8.4935 4.11963 9.29375 4.066 10.4625C4.01375 11.6381 4 12.0121 4 15.0014C4 17.9879 4.01375 18.3619 4.066 19.5348C4.121 20.7063 4.30525 21.5051 4.5775 22.205C4.85938 22.9282 5.23475 23.5415 5.84663 24.1534C6.45713 24.7653 7.07038 25.142 7.79363 25.4225C8.49488 25.6947 9.29238 25.8804 10.4639 25.934C11.6381 25.9862 12.0121 26 15 26C17.9879 26 18.3605 25.9862 19.5348 25.934C20.7049 25.879 21.5065 25.6947 22.2064 25.4225C22.94 25.1462 23.6045 24.7131 24.1534 24.1534C24.7653 23.5415 25.1406 22.9282 25.4225 22.205C25.6934 21.5051 25.879 20.7063 25.934 19.5348C25.9862 18.3619 26 17.9879 26 15C26 12.0121 25.9862 11.6381 25.934 10.4639C25.879 9.29375 25.6934 8.4935 25.4225 7.795C25.146 7.06106 24.7129 6.39618 24.1534 5.84663C23.6042 5.28655 22.9392 4.85339 22.205 4.5775C21.5037 4.30525 20.7035 4.11963 19.5334 4.066C18.3591 4.01375 17.9865 4 14.9973 4H15.0014H15ZM14.0141 5.98275H15.0014C17.9384 5.98275 18.2862 5.99238 19.4454 6.046C20.5179 6.09413 21.1009 6.27425 21.4886 6.42413C22.0015 6.6235 22.3686 6.86275 22.7536 7.24775C23.1386 7.63275 23.3765 7.9985 23.5759 8.51275C23.7271 8.89913 23.9059 9.48213 23.954 10.5546C24.0076 11.7138 24.0186 12.0616 24.0186 14.9973C24.0186 17.9329 24.0076 18.2821 23.954 19.4412C23.9059 20.5137 23.7258 21.0954 23.5759 21.4831C23.3995 21.9607 23.118 22.3926 22.7522 22.7468C22.3672 23.1318 22.0015 23.3696 21.4873 23.569C21.1023 23.7203 20.5192 23.899 19.4454 23.9485C18.2862 24.0008 17.9384 24.0131 15.0014 24.0131C12.0644 24.0131 11.7151 24.0008 10.556 23.9485C9.4835 23.899 8.90188 23.7203 8.51413 23.569C8.03631 23.3929 7.60405 23.1119 7.24912 22.7468C6.88303 22.392 6.60112 21.9598 6.42413 21.4817C6.27425 21.0954 6.09413 20.5124 6.046 19.4399C5.99375 18.2808 5.98275 17.9329 5.98275 14.9945C5.98275 12.0575 5.99375 11.711 6.046 10.5519C6.0955 9.47938 6.27425 8.89637 6.4255 8.50862C6.62488 7.99575 6.86412 7.62863 7.24912 7.24363C7.63412 6.85863 7.99988 6.62075 8.51413 6.42137C8.90188 6.27012 9.4835 6.09138 10.556 6.04188C11.5708 5.99513 11.964 5.98138 14.0141 5.98V5.98275ZM20.8726 7.80875C20.6993 7.80875 20.5276 7.84289 20.3675 7.90923C20.2073 7.97557 20.0618 8.0728 19.9392 8.19537C19.8167 8.31794 19.7194 8.46346 19.6531 8.62361C19.5868 8.78376 19.5526 8.95541 19.5526 9.12875C19.5526 9.3021 19.5868 9.47374 19.6531 9.63389C19.7194 9.79404 19.8167 9.93956 19.9392 10.0621C20.0618 10.1847 20.2073 10.2819 20.3675 10.3483C20.5276 10.4146 20.6993 10.4488 20.8726 10.4488C21.2227 10.4488 21.5585 10.3097 21.806 10.0621C22.0536 9.81458 22.1926 9.47884 22.1926 9.12875C22.1926 8.77866 22.0536 8.44292 21.806 8.19537C21.5585 7.94782 21.2227 7.80875 20.8726 7.80875ZM15.0014 9.3515C14.2521 9.33981 13.508 9.47729 12.8123 9.75594C12.1167 10.0346 11.4835 10.4488 10.9495 10.9746C10.4155 11.5003 9.99138 12.127 9.70191 12.8182C9.41244 13.5094 9.26336 14.2513 9.26336 15.0007C9.26336 15.7501 9.41244 16.4919 9.70191 17.1831C9.99138 17.8743 10.4155 18.5011 10.9495 19.0268C11.4835 19.5525 12.1167 19.9668 12.8123 20.2454C13.508 20.5241 14.2521 20.6616 15.0014 20.6499C16.4844 20.6267 17.8988 20.0214 18.9393 18.9645C19.9799 17.9076 20.5631 16.4839 20.5631 15.0007C20.5631 13.5175 19.9799 12.0938 18.9393 11.0369C17.8988 9.97999 16.4844 9.37464 15.0014 9.3515ZM15.0014 11.3329C15.974 11.3329 16.9067 11.7192 17.5944 12.407C18.2821 13.0947 18.6685 14.0274 18.6685 15C18.6685 15.9726 18.2821 16.9053 17.5944 17.593C16.9067 18.2808 15.974 18.6671 15.0014 18.6671C14.0288 18.6671 13.096 18.2808 12.4083 17.593C11.7206 16.9053 11.3343 15.9726 11.3343 15C11.3343 14.0274 11.7206 13.0947 12.4083 12.407C13.096 11.7192 14.0288 11.3329 15.0014 11.3329Z" fill="#838383"></path>
</svg>