<svg xmlns="http://www.w3.org/2000/svg" width="125.345" height="40.000" viewBox="0 0 125.345 40.000" fill="none">
  <svg x="0" y="1.500" width="37.000" height="37.000" viewBox="0 0 1024 1024" fill="none">
    <defs>
    <linearGradient id="g" x1="38%" y1="14%" x2="68%" y2="84%">
      <stop offset="0%" stop-color="#c1e617"/>
      <stop offset="100%" stop-color="#8ece13"/>
    </linearGradient>
  </defs>
  <g fill="url(#g)">
    <path d="M 525.00 807.02 L 467.00 806.72 L 435.00 802.57 L 411.00 797.52 L 386.00 790.37 L 359.00 780.34 L 330.00 766.29 L 309.00 753.59 L 292.00 741.72 L 268.00 721.04 L 249.69 702.00 L 234.72 683.00 L 216.47 654.00 L 208.26 637.00 L 200.56 618.00 L 192.51 590.00 L 188.35 566.00 L 186.52 539.00 L 187.25 514.00 L 190.54 491.00 L 196.58 466.00 L 205.54 442.00 L 215.31 422.00 L 228.66 400.00 L 245.48 378.00 L 261.00 361.41 L 280.00 344.43 L 303.00 327.43 L 325.00 314.24 L 349.00 302.40 L 372.00 293.34 L 405.00 283.51 L 440.00 277.25 L 466.00 274.91 L 468.37 276.00 L 428.97 309.00 L 404.00 333.80 L 384.00 358.01 L 363.00 389.83 L 348.00 419.97 L 336.00 456.15 L 330.00 487.38 L 328.71 525.00 L 331.00 546.98 L 337.00 573.33 L 346.00 597.98 L 355.00 615.57 L 369.00 636.31 L 385.02 654.00 L 402.89 669.00 L 424.76 682.00 L 454.10 693.00 L 488.27 698.00 L 519.88 696.00 L 543.94 690.00 L 571.09 678.00 L 593.96 662.00 L 616.00 638.89 L 631.00 615.75 L 643.00 586.98 L 649.00 558.03 L 650.34 527.00 L 648.00 501.18 L 642.00 474.78 L 628.00 439.90 L 613.00 414.97 L 589.97 387.00 L 589.46 385.00 L 591.00 383.70 L 654.20 363.00 L 676.57 354.00 L 719.00 333.46 L 749.33 364.00 L 773.55 397.00 L 793.51 436.00 L 806.58 477.00 L 810.72 501.00 L 812.57 535.00 L 810.56 565.00 L 804.49 597.00 L 797.58 620.00 L 783.36 652.00 L 769.56 675.00 L 753.86 696.00 L 731.00 720.65 L 709.00 739.66 L 680.00 759.61 L 652.00 774.69 L 624.00 786.49 L 592.00 796.38 L 558.00 803.48 L 525.00 807.02 Z"/>
    <path d="M 388.00 445.23 L 386.37 444.00 L 388.48 438.00 L 400.49 415.00 L 415.32 392.00 L 436.86 364.00 L 467.00 333.00 L 486.00 316.43 L 530.03 285.00 L 489.39 282.00 L 490.00 279.85 L 508.00 267.56 L 548.00 244.35 L 590.00 223.70 L 633.00 205.58 L 672.00 191.62 L 715.00 178.36 L 754.00 168.51 L 815.00 156.61 L 848.07 153.00 L 843.53 167.00 L 833.42 188.00 L 819.32 211.00 L 806.46 228.00 L 775.00 261.29 L 753.00 279.60 L 729.00 296.54 L 696.00 315.57 L 649.00 336.55 L 601.00 353.45 L 515.61 380.00 L 468.10 398.00 L 422.90 421.00 L 388.00 445.23 Z"/>
  </g>
  </svg>
  <path d="M 78.547 36.453 Q 78.547 28.547 75.812 21.750 Q 73.094 14.953 68.141 9.922 Q 63.203 4.906 56.219 2.047 Q 49.250 -0.797 40.750 -0.797 Q 32.250 -0.797 25.250 2.047 Q 18.250 4.906 13.266 9.922 Q 8.297 14.953 5.562 21.750 Q 2.844 28.547 2.844 36.453 Q 2.844 44.344 5.562 51.141 Q 8.297 57.953 13.266 62.953 Q 18.250 67.953 25.250 70.797 Q 32.250 73.656 40.750 73.656 Q 49.250 73.656 56.219 70.781 Q 63.203 67.906 68.141 62.906 Q 73.094 57.906 75.812 51.094 Q 78.547 44.297 78.547 36.453 Z M 61.250 36.453 Q 61.250 41.844 59.844 46.172 Q 58.453 50.500 55.828 53.500 Q 53.203 56.500 49.391 58.094 Q 45.594 59.703 40.750 59.703 Q 35.844 59.703 32.016 58.094 Q 28.203 56.500 25.578 53.500 Q 22.953 50.500 21.547 46.172 Q 20.156 41.844 20.156 36.453 Q 20.156 31.000 21.547 26.672 Q 22.953 22.344 25.578 19.344 Q 28.203 16.344 32.016 14.766 Q 35.844 13.203 40.750 13.203 Q 45.594 13.203 49.391 14.766 Q 53.203 16.344 55.828 19.344 Q 58.453 22.344 59.844 26.672 Q 61.250 31.000 61.250 36.453 Z M 102.200 74.844 L 102.200 0.000 L 86.700 0.000 L 86.700 74.844 L 102.200 74.844 Z M 128.544 51.844 L 128.544 0.000 L 113.044 0.000 L 113.044 51.844 L 128.544 51.844 Z M 130.153 66.047 Q 130.153 64.203 129.403 62.578 Q 128.653 60.953 127.341 59.719 Q 126.044 58.500 124.325 57.766 Q 122.606 57.047 120.653 57.047 Q 118.747 57.047 117.091 57.766 Q 115.450 58.500 114.169 59.719 Q 112.903 60.953 112.169 62.578 Q 111.450 64.203 111.450 66.047 Q 111.450 67.953 112.169 69.594 Q 112.903 71.250 114.169 72.500 Q 115.450 73.750 117.091 74.453 Q 118.747 75.156 120.653 75.156 Q 122.606 75.156 124.325 74.453 Q 126.044 73.750 127.341 72.500 Q 128.653 71.250 129.403 69.594 Q 130.153 67.953 130.153 66.047 Z M 188.244 51.844 L 168.150 0.000 L 154.056 0.000 L 133.947 51.844 L 146.853 51.844 Q 148.494 51.844 149.619 51.062 Q 150.744 50.297 151.150 49.156 L 158.353 25.906 Q 159.306 23.047 160.025 20.344 Q 160.744 17.656 161.306 14.953 Q 162.400 20.344 164.353 25.906 L 171.853 49.156 Q 172.244 50.297 173.338 51.062 Q 174.447 51.844 175.947 51.844 L 188.244 51.844 Z M 220.050 21.094 Q 215.394 20.906 212.394 20.297 Q 209.394 19.703 207.644 18.797 Q 205.894 17.906 205.222 16.750 Q 204.550 15.594 204.550 14.250 Q 204.550 11.594 206.003 10.516 Q 207.456 9.453 210.253 9.453 Q 213.253 9.453 215.503 10.500 Q 217.753 11.547 220.050 13.906 L 220.050 21.094 Z M 192.144 44.656 Q 196.847 48.797 202.566 50.812 Q 208.300 52.844 214.847 52.844 Q 219.550 52.844 223.316 51.312 Q 227.097 49.797 229.722 47.062 Q 232.347 44.344 233.738 40.594 Q 235.144 36.844 235.144 32.406 L 235.144 0.000 L 228.050 0.000 Q 225.847 0.000 224.722 0.594 Q 223.597 1.203 222.847 3.094 L 221.753 5.953 Q 219.800 4.297 218.003 3.047 Q 216.206 1.797 214.269 0.922 Q 212.347 0.047 210.175 -0.375 Q 208.003 -0.797 205.347 -0.797 Q 201.800 -0.797 198.894 0.125 Q 196.003 1.047 193.972 2.844 Q 191.956 4.656 190.847 7.328 Q 189.753 10.000 189.753 13.500 Q 189.753 16.297 191.144 19.172 Q 192.550 22.047 196.003 24.422 Q 199.456 26.797 205.300 28.391 Q 211.144 30.000 220.050 30.203 L 220.050 32.406 Q 220.050 36.953 218.175 38.969 Q 216.300 41.000 212.847 41.000 Q 210.097 41.000 208.347 40.391 Q 206.597 39.797 205.222 39.047 Q 203.847 38.297 202.550 37.688 Q 201.253 37.094 199.456 37.094 Q 197.847 37.094 196.738 37.891 Q 195.644 38.703 194.956 39.797 L 192.144 44.656 Z" fill="#FFFFFF" transform="translate(54.139 31.259) scale(0.302818 -0.302818)"/>
</svg>