<svg width="173" height="40" viewBox="0 0 173 40" fill="none" xmlns="http://www.w3.org/2000/svg">
<path d="M30 0H10C4.47715 0 0 4.47715 0 10V30C0 35.5228 4.47715 40 10 40H30C35.5228 40 40 35.5228 40 30V10C40 4.47715 35.5228 0 30 0Z" fill="#BAFF2A"/>
<mask id="path-2-inside-1_3_10" fill="white">
<path fill-rule="evenodd" clip-rule="evenodd" d="M24.8016 6.13417C24.7443 6.20947 24.6121 6.54539 24.508 6.88066C24.0083 8.49141 22.7831 9.54765 19.438 11.2511C17.3523 12.3133 15.884 13.1391 15.0632 13.7117C13.3775 14.8876 11.9185 16.6355 10.9645 18.622C9.86573 20.9099 9.70454 23.3186 10.4872 25.7541C10.7907 26.6987 11.6554 28.4757 12.041 28.9477C12.3161 29.2843 12.618 29.2395 12.6936 28.8509C12.7204 28.7129 12.8773 28.0335 13.0423 27.3412C13.8987 23.7474 16.6683 20.2941 20.6159 17.8983C20.9074 17.7214 20.7458 17.9412 19.9882 18.7518C16.057 22.9586 14.3443 26.6275 13.6039 32.4276C13.3815 34.1692 13.3843 34.8507 13.6141 34.9367C13.8678 35.0317 15.2618 35.0157 15.4227 34.9159C15.5053 34.8648 15.6025 34.3001 15.6722 33.4674C15.776 32.2244 15.9304 31.1782 16.0767 30.7241C16.1236 30.5783 16.4234 30.5377 17.8976 30.4775C21.719 30.3213 24.4191 29.2437 26.6173 26.9974C28.182 25.3985 28.9732 24.0291 29.527 21.9608C29.972 20.2984 30.0905 18.9989 29.935 17.4837C29.6218 14.4324 28.6006 11.7665 26.1597 7.6278C25.1806 5.96779 25.0436 5.81707 24.8016 6.13417ZM25.7793 8.24119C27.0489 10.3791 28.2647 12.9817 28.7416 14.5823C29.9216 18.5429 29.3171 22.5887 27.1113 25.494C25.9374 27.0403 24.3593 28.2461 22.5677 28.9657C21.1058 29.5527 19.8671 29.7719 17.6671 29.833C15.9817 29.8798 15.6573 29.9158 15.5785 30.0651C15.4101 30.384 15.1114 32.095 15.0304 33.2041L14.951 34.2917L14.5303 34.3256C14.0239 34.3665 14.03 34.4145 14.2838 32.394C14.5799 30.0365 14.9418 28.5336 15.6981 26.5203C16.8491 23.4562 18.5751 21.0142 21.7225 17.997C22.6562 17.1019 23.4203 16.3321 23.4203 16.2865C23.4203 16.2409 23.3421 16.1403 23.2466 16.0629C23.1008 15.9448 22.8717 16.0202 21.8164 16.5336C16.8213 18.9635 13.343 22.9964 12.259 27.6149L12.1819 27.9432L11.8945 27.396C11.4124 26.4776 10.9759 25.1921 10.7868 24.1336C10.1297 20.4556 12.2452 16.2988 16.0167 13.8574C16.5411 13.5178 17.9545 12.7365 19.1576 12.121C20.3607 11.5055 21.7541 10.7394 22.2542 10.4186C23.3326 9.72672 24.3613 8.69094 24.8214 7.83336C25.0042 7.49284 25.1628 7.22369 25.1739 7.23518C25.1851 7.24668 25.4576 7.69938 25.7793 8.24119Z"/>
</mask>
<path fill-rule="evenodd" clip-rule="evenodd" d="M24.8016 6.13417C24.7443 6.20947 24.6121 6.54539 24.508 6.88066C24.0083 8.49141 22.7831 9.54765 19.438 11.2511C17.3523 12.3133 15.884 13.1391 15.0632 13.7117C13.3775 14.8876 11.9185 16.6355 10.9645 18.622C9.86573 20.9099 9.70454 23.3186 10.4872 25.7541C10.7907 26.6987 11.6554 28.4757 12.041 28.9477C12.3161 29.2843 12.618 29.2395 12.6936 28.8509C12.7204 28.7129 12.8773 28.0335 13.0423 27.3412C13.8987 23.7474 16.6683 20.2941 20.6159 17.8983C20.9074 17.7214 20.7458 17.9412 19.9882 18.7518C16.057 22.9586 14.3443 26.6275 13.6039 32.4276C13.3815 34.1692 13.3843 34.8507 13.6141 34.9367C13.8678 35.0317 15.2618 35.0157 15.4227 34.9159C15.5053 34.8648 15.6025 34.3001 15.6722 33.4674C15.776 32.2244 15.9304 31.1782 16.0767 30.7241C16.1236 30.5783 16.4234 30.5377 17.8976 30.4775C21.719 30.3213 24.4191 29.2437 26.6173 26.9974C28.182 25.3985 28.9732 24.0291 29.527 21.9608C29.972 20.2984 30.0905 18.9989 29.935 17.4837C29.6218 14.4324 28.6006 11.7665 26.1597 7.6278C25.1806 5.96779 25.0436 5.81707 24.8016 6.13417ZM25.7793 8.24119C27.0489 10.3791 28.2647 12.9817 28.7416 14.5823C29.9216 18.5429 29.3171 22.5887 27.1113 25.494C25.9374 27.0403 24.3593 28.2461 22.5677 28.9657C21.1058 29.5527 19.8671 29.7719 17.6671 29.833C15.9817 29.8798 15.6573 29.9158 15.5785 30.0651C15.4101 30.384 15.1114 32.095 15.0304 33.2041L14.951 34.2917L14.5303 34.3256C14.0239 34.3665 14.03 34.4145 14.2838 32.394C14.5799 30.0365 14.9418 28.5336 15.6981 26.5203C16.8491 23.4562 18.5751 21.0142 21.7225 17.997C22.6562 17.1019 23.4203 16.3321 23.4203 16.2865C23.4203 16.2409 23.3421 16.1403 23.2466 16.0629C23.1008 15.9448 22.8717 16.0202 21.8164 16.5336C16.8213 18.9635 13.343 22.9964 12.259 27.6149L12.1819 27.9432L11.8945 27.396C11.4124 26.4776 10.9759 25.1921 10.7868 24.1336C10.1297 20.4556 12.2452 16.2988 16.0167 13.8574C16.5411 13.5178 17.9545 12.7365 19.1576 12.121C20.3607 11.5055 21.7541 10.7394 22.2542 10.4186C23.3326 9.72672 24.3613 8.69094 24.8214 7.83336C25.0042 7.49284 25.1628 7.22369 25.1739 7.23518C25.1851 7.24668 25.4576 7.69938 25.7793 8.24119Z" fill="black"/>
<path d="M24.8016 6.13417L16.8517 0.0678949L16.8445 0.0773392L24.8016 6.13417ZM24.508 6.88066L14.9578 3.91532L14.9571 3.91745L24.508 6.88066ZM19.438 11.2511L14.9001 2.34003L14.9 2.3401L19.438 11.2511ZM15.0632 13.7117L9.3419 5.51003L9.34188 5.51004L15.0632 13.7117ZM10.9645 18.622L1.9502 14.2927L1.9501 14.2929L10.9645 18.622ZM10.4872 25.7541L20.0077 22.6947L20.0077 22.6947L10.4872 25.7541ZM12.041 28.9477L4.29745 35.2752L4.2978 35.2756L12.041 28.9477ZM12.6936 28.8509L22.5095 30.7609L22.5101 30.7577L12.6936 28.8509ZM13.0423 27.3412L22.7698 29.6598L22.77 29.6591L13.0423 27.3412ZM20.6159 17.8983L15.4288 9.34871L15.4275 9.34955L20.6159 17.8983ZM19.9882 18.7518L12.6819 11.9241L12.6819 11.9241L19.9882 18.7518ZM13.6039 32.4276L3.68438 31.1613L3.68438 31.1613L13.6039 32.4276ZM13.6141 34.9367L10.1071 44.3016L10.1076 44.3017L13.6141 34.9367ZM15.4227 34.9159L10.1587 26.4135L10.1498 26.419L15.4227 34.9159ZM15.6722 33.4674L25.6374 34.301L25.6374 34.3001L15.6722 33.4674ZM16.0767 30.7241L25.5951 33.79L25.5965 33.7857L16.0767 30.7241ZM17.8976 30.4775L18.3056 40.4691L18.306 40.4691L17.8976 30.4775ZM26.6173 26.9974L19.4702 20.0032L19.4702 20.0032L26.6173 26.9974ZM29.527 21.9608L39.1867 24.5473L39.1869 24.5466L29.527 21.9608ZM29.935 17.4837L39.8827 16.463L39.8827 16.4627L29.935 17.4837ZM26.1597 7.6278L34.7732 2.54772L34.7732 2.5476L26.1597 7.6278ZM25.7793 8.24119L17.1809 13.3468L17.1812 13.3473L25.7793 8.24119ZM28.7416 14.5823L38.3254 11.7271L38.3252 11.7264L28.7416 14.5823ZM27.1113 25.494L19.1467 19.4472L19.1466 19.4473L27.1113 25.494ZM22.5677 28.9657L26.294 38.2455L26.2947 38.2452L22.5677 28.9657ZM17.6671 29.833L17.3896 19.8368L17.3893 19.8368L17.6671 29.833ZM15.5785 30.0651L24.4212 34.7348L24.4235 34.7305L15.5785 30.0651ZM15.0304 33.2041L25.0039 33.9324L25.0039 33.9324L15.0304 33.2041ZM14.951 34.2917L15.755 44.2593L24.3001 43.57L24.9244 35.02L14.951 34.2917ZM14.5303 34.3256L13.7263 24.358L13.7247 24.3581L14.5303 34.3256ZM14.2838 32.394L4.36175 31.1477L4.36171 31.1479L14.2838 32.394ZM15.6981 26.5203L6.3368 23.0037L6.33677 23.0038L15.6981 26.5203ZM21.7225 17.997L14.8023 10.7782L14.8023 10.7782L21.7225 17.997ZM23.2466 16.0629L29.5438 8.29471L29.5402 8.29179L23.2466 16.0629ZM21.8164 16.5336L17.4422 7.54099L17.4419 7.54113L21.8164 16.5336ZM12.259 27.6149L2.52354 25.33L2.52352 25.33L12.259 27.6149ZM12.1819 27.9432L3.32844 32.5925L15.7922 56.3271L21.9174 30.2281L12.1819 27.9432ZM11.8945 27.396L3.04059 32.0443L3.04105 32.0452L11.8945 27.396ZM10.7868 24.1336L0.942685 25.8924L0.942727 25.8926L10.7868 24.1336ZM16.0167 13.8574L21.4508 22.252L21.4514 22.2516L16.0167 13.8574ZM19.1576 12.121L14.6032 3.21829L14.6025 3.21862L19.1576 12.121ZM22.2542 10.4186L27.6538 18.8355L27.6539 18.8354L22.2542 10.4186ZM24.8214 7.83336L16.01 3.10482L16.0097 3.10537L24.8214 7.83336ZM25.1739 7.23518L17.9827 14.184L18.0001 14.2021L18.0176 14.22L25.1739 7.23518ZM24.8016 6.13417L16.8445 0.0773392C16.1132 1.0381 15.7072 1.95752 15.6838 2.00772C15.5464 2.30234 15.4389 2.56499 15.3662 2.74988C15.2167 3.13015 15.0772 3.53074 14.9578 3.91532L24.508 6.88066L34.0582 9.846C34.0429 9.89531 34.0216 9.96031 33.9785 10.07C33.959 10.1196 33.9018 10.2632 33.8085 10.4631C33.7622 10.5624 33.6765 10.7414 33.5549 10.9642C33.4925 11.0785 33.4032 11.2365 33.2884 11.4217C33.1799 11.5966 33.0024 11.8708 32.7587 12.191L24.8016 6.13417ZM24.508 6.88066L14.9571 3.91745C15.0951 3.47267 15.3279 2.94141 15.6837 2.41362C16.0262 1.90549 16.3541 1.59191 16.5108 1.45691C16.6444 1.3417 16.6354 1.37231 16.343 1.55165C16.0539 1.72895 15.6018 1.98271 14.9001 2.34003L19.438 11.2511L23.9759 20.1622C27.2981 18.4704 32.2084 15.8085 34.0589 9.84386L24.508 6.88066ZM19.438 11.2511L14.9 2.3401C12.8004 3.40933 10.7833 4.50458 9.3419 5.51003L15.0632 13.7117L20.7844 21.9133C20.779 21.9171 20.8462 21.8705 21.0133 21.7684C21.1745 21.6699 21.3933 21.5414 21.6784 21.381C22.2526 21.0581 23.0123 20.6529 23.9761 20.1621L19.438 11.2511ZM15.0632 13.7117L9.34188 5.51004C6.14146 7.74259 3.59437 10.8692 1.9502 14.2927L10.9645 18.622L19.9788 22.9512C20.2427 22.4017 20.6135 22.0325 20.7845 21.9133L15.0632 13.7117ZM10.9645 18.622L1.9501 14.2929C-0.266441 18.9084 -0.59214 23.9627 0.966685 28.8135L10.4872 25.7541L20.0077 22.6947C19.9901 22.6399 19.9916 22.6288 19.9952 22.6569C19.999 22.6861 20.0023 22.7366 19.998 22.8005C19.9937 22.8644 19.9834 22.9182 19.9736 22.9547C19.964 22.9903 19.9602 22.9899 19.9789 22.951L10.9645 18.622ZM10.4872 25.7541L0.966681 28.8135C1.32837 29.9391 1.85251 31.1044 2.24124 31.9034C2.48832 32.4112 3.25982 34.0053 4.29745 35.2752L12.041 28.9477L19.7846 22.6202C19.8696 22.7242 19.9405 22.8158 19.9966 22.8905C20.0532 22.9657 20.1007 23.0317 20.1388 23.0858C20.2135 23.1918 20.2678 23.2749 20.3004 23.3258C20.3342 23.3786 20.3569 23.4163 20.3682 23.4352C20.38 23.4549 20.3851 23.4641 20.3836 23.4614C20.3795 23.4541 20.3613 23.4214 20.3304 23.362C20.3003 23.3043 20.2646 23.2335 20.2254 23.1529C20.1864 23.0727 20.1472 22.9896 20.1099 22.9077C20.0724 22.8256 20.04 22.7517 20.0138 22.6896C19.9869 22.626 19.9718 22.5876 19.9669 22.5747C19.9648 22.5692 19.9673 22.5754 19.9733 22.5925C19.9792 22.609 19.9913 22.6437 20.0077 22.6947L10.4872 25.7541ZM12.041 28.9477L4.2978 35.2756C5.27568 36.4722 8.57915 39.8535 13.909 39.0631C20.1103 38.1435 22.0999 32.8661 22.5095 30.7609L12.6936 28.8509L2.87766 26.941C3.21168 25.2244 5.01247 20.1637 10.9752 19.2794C16.0665 18.5244 19.0815 21.7598 19.7843 22.6198L12.041 28.9477ZM12.6936 28.8509L22.5101 30.7577C22.4993 30.8134 22.4909 30.8535 22.4882 30.8665C22.4863 30.8754 22.485 30.8819 22.4841 30.8857C22.4833 30.8896 22.4828 30.8918 22.4828 30.8922C22.4827 30.8925 22.4836 30.8884 22.4856 30.8791C22.4876 30.8701 22.4903 30.8579 22.4938 30.8423C22.5085 30.7768 22.5306 30.6799 22.5595 30.5547C22.6169 30.3063 22.692 29.9862 22.7698 29.6598L13.0423 27.3412L3.31482 25.0227C3.17544 25.6075 2.95449 26.5455 2.87704 26.9442L12.6936 28.8509ZM13.0423 27.3412L22.77 29.6591C22.8601 29.2808 23.5373 27.8228 25.8043 26.447L20.6159 17.8983L15.4275 9.34955C9.79925 12.7654 4.93721 18.214 3.31467 25.0233L13.0423 27.3412ZM20.6159 17.8983L25.8029 26.4478C25.7157 26.5007 25.2577 26.7816 24.6094 27.0566C24.315 27.1815 23.5567 27.4911 22.5287 27.679C21.9262 27.7891 18.8386 28.358 15.6057 26.4199C11.2449 23.8057 10.6369 19.3811 10.7716 17.2298C10.8874 15.3805 11.4991 14.0462 11.6688 13.6792C12.1016 12.7434 12.5853 12.1037 12.6392 12.0305C12.9624 11.591 13.1867 11.3839 12.6819 11.9241L19.9882 18.7518L27.2946 25.5795C27.5473 25.3091 28.2312 24.5868 28.7517 23.8789C28.8549 23.7386 29.3716 23.0473 29.8215 22.0745C29.9997 21.689 30.6161 20.3399 30.7325 18.4793C30.8679 16.3168 30.2568 11.8845 25.889 9.2661C22.649 7.3238 19.5507 7.892 18.9335 8.00477C17.891 8.19528 17.1143 8.51095 16.7979 8.64518C16.1057 8.93889 15.5889 9.25159 15.4288 9.34871L20.6159 17.8983ZM19.9882 18.7518L12.6819 11.9241C7.29378 17.69 4.68621 23.3139 3.68438 31.1613L13.6039 32.4276L23.5234 33.694C24.0025 29.9411 24.8203 28.2272 27.2946 25.5795L19.9882 18.7518ZM13.6039 32.4276L3.68438 31.1613C3.57227 32.0395 3.43497 33.2237 3.43954 34.3438C3.44153 34.8336 3.46116 36.0539 3.85952 37.4669C4.19349 38.6514 5.55702 42.5976 10.1071 44.3016L13.6141 34.9367L17.1211 25.5718C21.5563 27.2327 22.8333 31.0615 23.1091 32.0397C23.4493 33.2462 23.439 34.1712 23.4394 34.2622C23.4407 34.5846 23.4132 34.5573 23.5234 33.694L13.6039 32.4276ZM13.6141 34.9367L10.1076 44.3017C11.247 44.7284 12.2301 44.8516 12.4211 44.8774C12.8079 44.9296 13.1444 44.9551 13.3722 44.969C13.8397 44.9975 14.2921 45.003 14.6681 44.9987C15.0365 44.9945 15.5062 44.9789 15.9978 44.9349C16.2278 44.9144 16.6269 44.8736 17.0955 44.7885C17.3272 44.7464 17.7156 44.6688 18.1806 44.5331C18.5096 44.437 19.5412 44.1291 20.6955 43.4128L15.4227 34.9159L10.1498 26.419C11.2841 25.7152 12.286 25.419 12.5768 25.3342C13.0035 25.2096 13.3452 25.1424 13.5229 25.1102C13.8835 25.0447 14.1453 25.0208 14.218 25.0143C14.3225 25.005 14.3882 25.0019 14.4066 25.0011C14.4194 25.0005 14.4276 25.0003 14.4316 25.0002C14.4357 25 14.4378 25 14.4384 25C14.439 25 14.44 25 14.4419 25C14.4437 25 14.4484 25 14.4564 25.0002C14.4673 25.0004 14.513 25.0014 14.59 25.0061C14.6489 25.0097 14.8336 25.0217 15.095 25.0569C15.2278 25.0749 15.4504 25.1081 15.7289 25.1665C15.966 25.2163 16.4838 25.3332 17.1206 25.5716L13.6141 34.9367ZM15.4227 34.9159L20.6867 43.4182C23.2779 41.814 24.3179 39.5121 24.4444 39.2524C24.7907 38.5415 24.9823 37.9356 25.0695 37.6435C25.2564 37.0168 25.3576 36.4701 25.4072 36.182C25.5186 35.535 25.5898 34.8699 25.6374 34.301L15.6722 33.4674L5.70698 32.6337C5.68491 32.8975 5.67261 32.9311 5.69736 32.7874C5.70364 32.751 5.76064 32.4071 5.90394 31.9267C5.96926 31.7077 6.13926 31.1608 6.46417 30.4938C6.6295 30.1544 6.92424 29.5977 7.38687 28.9696C7.80729 28.3988 8.68864 27.3237 10.1587 26.4135L15.4227 34.9159ZM15.6722 33.4674L25.6374 34.3001C25.6758 33.8414 25.7185 33.4829 25.7515 33.2589C25.768 33.1468 25.7752 33.1156 25.7681 33.151C25.7641 33.1709 25.7517 33.2308 25.7291 33.322C25.7082 33.4064 25.6654 33.5716 25.5951 33.79L16.0767 30.7241L6.55826 27.6582C6.01525 29.344 5.80444 31.4675 5.70691 32.6346L15.6722 33.4674ZM16.0767 30.7241L25.5965 33.7857C25.1111 35.2947 24.2604 36.6916 23.09 37.833C22.007 38.8893 20.9077 39.4766 20.1804 39.7947C18.9088 40.3508 17.8519 40.4703 17.7939 40.4782C17.4995 40.5181 17.4346 40.5047 18.3056 40.4691L17.8976 30.4775L17.4896 20.4858C16.8864 20.5104 15.9345 20.5474 15.1099 20.6591C14.7868 20.7029 13.5541 20.8637 12.1669 21.4703C10.3853 22.2494 7.70905 24.08 6.5569 27.6624L16.0767 30.7241ZM17.8976 30.4775L18.306 40.4691C24.0904 40.2327 29.4138 38.4373 33.7644 33.9916L26.6173 26.9974L19.4702 20.0032C19.3616 20.1142 19.2975 20.1599 19.2745 20.1754C19.2535 20.1896 19.2232 20.2081 19.1594 20.2336C19.0305 20.285 18.5688 20.4417 17.4892 20.4858L17.8976 30.4775ZM26.6173 26.9974L33.7643 33.9917C36.4754 31.2214 38.1678 28.3524 39.1867 24.5473L29.527 21.9608L19.8673 19.3743C19.8113 19.5834 19.7748 19.6796 19.7655 19.703C19.759 19.7193 19.7683 19.6944 19.7924 19.6527C19.8158 19.6121 19.8237 19.6069 19.7903 19.6493C19.7521 19.698 19.6585 19.8108 19.4702 20.0032L26.6173 26.9974ZM29.527 21.9608L39.1869 24.5466C39.9057 21.8611 40.1774 19.3348 39.8827 16.463L29.935 17.4837L19.9872 18.5045C20.006 18.6875 19.999 18.7422 19.9974 18.7595C19.9942 18.7952 19.977 18.9642 19.8671 19.375L29.527 21.9608ZM29.935 17.4837L39.8827 16.4627C39.3626 11.3957 37.575 7.29832 34.7732 2.54772L26.1597 7.6278L17.5462 12.7079C19.6263 16.2348 19.8809 17.4692 19.9872 18.5048L29.935 17.4837ZM26.1597 7.6278L34.7732 2.5476C34.5619 2.1895 33.6629 0.577731 32.6029 -0.587962C32.375 -0.83858 29.4043 -4.34812 24.2526 -3.9733C21.6172 -3.78157 19.7211 -2.62987 18.654 -1.77877C17.673 -0.996372 17.0601 -0.20513 16.8517 0.0678992L24.8016 6.13417L32.7515 12.2004C32.6036 12.3942 32.0479 13.1208 31.1246 13.8572C30.1151 14.6623 28.277 15.7868 25.7038 15.974C23.1121 16.1625 21.0881 15.3061 19.8848 14.5746C18.7767 13.9009 18.0808 13.1698 17.8056 12.8671C17.2744 12.2829 17.0007 11.8121 17.1307 12.0164C17.1851 12.1019 17.301 12.2921 17.5463 12.708L26.1597 7.6278ZM25.7793 8.24119L17.1812 13.3473C17.6358 14.1129 18.1046 15.0046 18.4976 15.8457C18.6913 16.2603 18.8501 16.6277 18.9707 16.9291C19.0303 17.0783 19.0758 17.1995 19.1089 17.2924C19.1252 17.3382 19.1373 17.3739 19.1458 17.3996C19.1544 17.4256 19.1581 17.4383 19.1581 17.4382L28.7416 14.5823L38.3252 11.7264C37.5295 9.0563 35.8839 5.6719 34.3775 3.13511L25.7793 8.24119ZM28.7416 14.5823L19.1579 17.4375C19.5665 18.8091 19.1477 19.4457 19.1467 19.4472L27.1113 25.494L35.0759 31.5409C39.4865 25.7316 40.2767 18.2768 38.3254 11.7271L28.7416 14.5823ZM27.1113 25.494L19.1466 19.4473C19.0603 19.5609 18.9434 19.6449 18.8407 19.6861L22.5677 28.9657L26.2947 38.2452C29.7751 36.8473 32.8144 34.5197 35.076 31.5408L27.1113 25.494ZM22.5677 28.9657L18.8414 19.6859C18.7337 19.7291 18.6912 19.7412 18.6897 19.7417C18.6871 19.7424 18.6861 19.7427 18.6841 19.7431C18.6821 19.7436 18.6721 19.7459 18.6515 19.7496C18.5581 19.7661 18.2386 19.8133 17.3896 19.8368L17.6671 29.833L17.9446 39.8291C20.8932 39.7473 23.3925 39.4106 26.294 38.2455L22.5677 28.9657ZM17.6671 29.833L17.3893 19.8368C16.6725 19.8568 15.7154 19.883 14.9157 19.9718C14.5806 20.0091 13.484 20.1301 12.2299 20.5942C10.6794 21.1681 8.25697 22.5114 6.73347 25.3998L15.5785 30.0651L24.4235 34.7305C23.7648 35.9794 22.8541 37.0552 21.7719 37.8994C20.7659 38.684 19.8089 39.115 19.1722 39.3507C18.0538 39.7647 17.1583 39.8457 17.1248 39.8495C16.9285 39.8713 16.9763 39.856 17.9449 39.8291L17.6671 29.833ZM15.5785 30.0651L6.73576 25.3955C6.00879 26.7721 5.71582 28.1731 5.70471 28.2198C5.59024 28.701 5.49547 29.1902 5.42072 29.6183C5.27516 30.4519 5.1282 31.5003 5.05697 32.4758L15.0304 33.2041L25.0039 33.9324C25.0067 33.8941 25.0175 33.7757 25.0421 33.5873C25.0657 33.4072 25.0943 33.2205 25.1227 33.0583C25.1538 32.8801 25.1703 32.8124 25.1617 32.8485C25.1584 32.8623 25.1285 32.9892 25.0681 33.1858C25.0371 33.2865 24.9819 33.4587 24.8998 33.6757C24.8577 33.7872 24.8009 33.9308 24.7283 34.0972C24.6573 34.26 24.5559 34.4798 24.4212 34.7348L15.5785 30.0651ZM15.0304 33.2041L5.05697 32.4758L4.97755 33.5633L14.951 34.2917L24.9244 35.02L25.0039 33.9324L15.0304 33.2041ZM14.951 34.2917L14.147 24.324L13.7263 24.358L14.5303 34.3256L15.3344 44.2932L15.755 44.2593L14.951 34.2917ZM14.5303 34.3256L13.7247 24.3581C13.4252 24.3823 13.7904 24.349 14.0958 24.3408C14.3837 24.3331 15.6957 24.2911 17.2877 24.8001C19.2636 25.4318 21.2121 26.7558 22.5537 28.8252C23.6824 30.5661 23.9556 32.1933 24.0415 32.8669C24.1923 34.0486 24.0524 34.9625 24.0928 34.5648C24.1058 34.4367 24.133 34.2203 24.2058 33.6401L14.2838 32.394L4.36171 31.1479C4.30771 31.578 4.23893 32.1132 4.19525 32.5431C4.17896 32.7034 4.02157 33.9817 4.20243 35.3988C4.30342 36.1901 4.60351 37.9028 5.77196 39.7051C7.15338 41.8359 9.15466 43.1972 11.1972 43.8502C12.8559 44.3805 14.2485 44.3439 14.6321 44.3336C15.033 44.3229 15.5089 44.2791 15.336 44.2931L14.5303 34.3256ZM14.2838 32.394L24.2058 33.6404C24.4145 31.9789 24.6051 31.2462 25.0594 30.0368L15.6981 26.5203L6.33677 23.0038C5.27848 25.8211 4.74533 28.094 4.36175 31.1477L14.2838 32.394ZM15.6981 26.5203L25.0594 30.0369C25.5396 28.7586 26.2338 27.5251 28.6427 25.2157L21.7225 17.997L14.8023 10.7782C10.9163 14.5034 8.15867 18.1538 6.3368 23.0037L15.6981 26.5203ZM21.7225 17.997L28.6427 25.2158C29.1517 24.7278 29.6379 24.2517 30.019 23.8678C30.1997 23.6856 30.4106 23.4703 30.6036 23.2631C30.6848 23.1758 30.8612 22.9853 31.0559 22.7525C31.1355 22.6573 31.3618 22.3854 31.6161 22.0204C31.7325 21.8533 32.0004 21.4607 32.2798 20.9265C32.3106 20.8674 33.4203 18.9502 33.4203 16.2865H23.4203H13.4203C13.4203 14.7026 13.8006 13.5031 13.9778 12.9951C14.1891 12.3894 14.4171 11.9257 14.5563 11.6593C14.8327 11.1308 15.0962 10.7451 15.2068 10.5864C15.4495 10.2381 15.6584 9.98831 15.7153 9.92025C15.8019 9.8167 15.8693 9.74103 15.9 9.70678C15.935 9.66774 15.9596 9.64128 15.969 9.63113C15.9896 9.60905 15.951 9.65064 15.8241 9.77855C15.5897 10.0147 15.227 10.3711 14.8023 10.7782L21.7225 17.997ZM23.4203 16.2865H33.4203C33.4203 13.847 32.5212 12.0984 32.289 11.6496C31.9171 10.9303 31.5279 10.3886 31.2666 10.0521C30.7344 9.36707 30.1444 8.78153 29.5438 8.29471L23.2466 16.0629L16.9494 23.8311C16.4443 23.4217 15.9411 22.9251 15.4719 22.3211C15.242 22.0252 14.8784 21.522 14.5241 20.8368C14.3437 20.4881 14.1019 19.9698 13.8917 19.3124C13.6947 18.6961 13.4203 17.6352 13.4203 16.2865H23.4203ZM23.2466 16.0629L29.5402 8.29179C27.8012 6.88338 25.6409 6.07672 23.3694 6.01779C21.604 5.97199 20.2416 6.39967 19.7465 6.56261C18.7699 6.884 17.8032 7.36539 17.4422 7.54099L21.8164 16.5336L26.1906 25.5261C26.8849 25.1884 26.5604 25.3754 25.9986 25.5603C25.7109 25.6549 24.4991 26.0538 22.8507 26.0111C21.9255 25.9871 20.8499 25.8258 19.7187 25.4076C18.58 24.9866 17.6605 24.4071 16.953 23.834L23.2466 16.0629ZM21.8164 16.5336L17.4419 7.54113C10.2581 11.0358 4.41598 17.2667 2.52354 25.33L12.259 27.6149L21.9945 29.8998C22.2699 28.726 23.3845 26.8912 26.1909 25.526L21.8164 16.5336ZM12.259 27.6149L2.52352 25.33L2.44646 25.6584L12.1819 27.9432L21.9174 30.2281L21.9945 29.8997L12.259 27.6149ZM12.1819 27.9432L21.0354 23.294L20.748 22.7467L11.8945 27.396L3.04105 32.0452L3.32844 32.5925L12.1819 27.9432ZM11.8945 27.396L20.7485 22.7476C20.7813 22.81 20.7842 22.8223 20.7661 22.7791C20.7495 22.7395 20.7257 22.6782 20.6998 22.6022C20.6741 22.5264 20.6536 22.4572 20.6394 22.4035C20.6244 22.347 20.624 22.3362 20.6309 22.3746L10.7868 24.1336L0.942727 25.8926C1.30528 27.9216 2.06497 30.186 3.04059 32.0443L11.8945 27.396ZM10.7868 24.1336L20.6309 22.3749C20.7465 23.0218 20.5525 23.2654 20.6532 23.0674C20.694 22.9874 20.7757 22.8562 20.9164 22.7014C21.0555 22.5483 21.2344 22.3921 21.4508 22.252L16.0167 13.8574L10.5825 5.46274C4.28812 9.53733 -0.586395 17.3339 0.942685 25.8924L10.7868 24.1336ZM16.0167 13.8574L21.4514 22.2516C21.3792 22.2984 21.4022 22.2809 21.579 22.1783C21.7297 22.0909 21.9306 21.9772 22.1707 21.8444C22.6536 21.5775 23.2132 21.2788 23.7126 21.0233L19.1576 12.121L14.6025 3.21862C13.3618 3.85348 11.5622 4.82845 10.5819 5.46313L16.0167 13.8574ZM19.1576 12.121L23.712 21.0236C24.9352 20.3978 26.7084 19.442 27.6538 18.8355L22.2542 10.4186L16.8545 2.00172C16.9321 1.95194 16.9143 1.96613 16.7382 2.06757C16.5897 2.15308 16.3908 2.26493 16.152 2.39623C15.6723 2.6599 15.111 2.9585 14.6032 3.21829L19.1576 12.121ZM22.2542 10.4186L27.6539 18.8354C29.7256 17.5064 32.1529 15.3202 33.6331 12.5613L24.8214 7.83336L16.0097 3.10537C16.2183 2.71666 16.4021 2.46801 16.4887 2.35675C16.5843 2.23404 16.6497 2.16621 16.6741 2.1417C16.7039 2.11163 16.7405 2.07491 16.8545 2.00176L22.2542 10.4186ZM24.8214 7.83336L33.6329 12.5619C33.6824 12.4696 33.7007 12.4397 33.6775 12.479C33.6691 12.4933 33.6497 12.526 33.6213 12.5721C33.5973 12.6112 33.5407 12.7024 33.4609 12.8221C33.4272 12.8726 33.1975 13.2218 32.8528 13.6365C32.7557 13.7532 32.2057 14.4277 31.3375 15.1079C30.9894 15.3807 29.7877 16.31 27.9506 16.8413C25.7595 17.4749 21.4144 17.7355 17.9827 14.184L25.1739 7.23518L32.3652 0.286375C28.9327 -3.26581 24.5867 -3.00545 22.3943 -2.37143C20.5559 -1.83977 19.3527 -0.909594 19.0027 -0.635404C18.1309 0.0476589 17.5762 0.727113 17.4734 0.850778C17.1171 1.27928 16.8717 1.6503 16.8188 1.72976C16.6445 1.99119 16.5072 2.22267 16.4465 2.32556C16.2956 2.58165 16.1433 2.85657 16.01 3.10482L24.8214 7.83336ZM25.1739 7.23518L18.0176 14.22C17.7679 13.9641 17.5836 13.7475 17.4884 13.633C17.3813 13.5043 17.2965 13.3959 17.2407 13.3231C17.1313 13.1806 17.0486 13.0647 17.0064 13.0049C16.9196 12.882 16.8551 12.7845 16.8311 12.7481C16.776 12.6646 16.7361 12.601 16.7275 12.5874C16.7028 12.5482 16.6897 12.5265 16.6989 12.5416C16.7117 12.5625 16.7419 12.6124 16.7921 12.6957C16.8891 12.8569 17.0272 13.088 17.1809 13.3468L25.7793 8.24119L34.3777 3.13554C34.2097 2.85257 34.0507 2.58638 33.9282 2.38289C33.8687 2.28395 33.8086 2.18458 33.7571 2.10047C33.7342 2.063 33.6954 1.99988 33.6524 1.93154C33.6347 1.90339 33.5874 1.82839 33.5269 1.73678C33.5002 1.69627 33.4335 1.5955 33.345 1.47017C33.3019 1.40916 33.2185 1.29224 33.1085 1.14895C33.0536 1.07728 32.7604 0.69112 32.3302 0.25034L25.1739 7.23518Z" fill="black" mask="url(#path-2-inside-1_3_10)"/>
<path fill-rule="evenodd" clip-rule="evenodd" d="M146.513 12.4535C146.513 14.3529 146.459 15.9406 146.393 15.9818C146.327 16.023 146.025 15.8761 145.722 15.6553C144.462 14.7368 143.365 14.4002 141.63 14.4002C139.435 14.4002 137.906 15.0329 136.399 16.5644C134.688 18.3027 134.078 19.8888 134.088 22.5696C134.098 25.0583 134.519 26.4933 135.702 28.067C137.327 30.2287 139.88 31.2751 142.566 30.8798C144.082 30.6565 144.952 30.3003 145.834 29.5409L146.582 28.8969L146.651 29.7834L146.719 30.6698L148.886 30.7079L151.052 30.7461V19.873V9H148.783H146.513V12.4535ZM64.4238 20.2503L60 30.5314L60.5116 30.6272C60.7929 30.6799 61.8725 30.7267 62.9108 30.731L64.7987 30.7391L64.9857 30.3583C65.0884 30.1489 65.4705 29.183 65.8348 28.2121L66.4971 26.4466H71.2777H76.0582L76.1906 26.8274C76.2633 27.0368 76.6475 28.0026 77.0444 28.9736L77.7658 30.7391L79.4359 30.724C80.3545 30.7158 81.4575 30.669 81.8873 30.6201L82.6686 30.5314L82.4244 29.839C82.2902 29.4583 80.3061 24.8319 78.0151 19.558L73.8499 9.96926H71.3487H68.8474L64.4238 20.2503ZM92.523 14.5946C91.6831 14.8632 90.6448 15.4319 89.9913 15.9816C89.6671 16.2541 89.3459 16.4771 89.2774 16.4771C89.2089 16.4771 89.1522 16.2747 89.1514 16.0271C89.1505 15.7795 89.1112 15.3419 89.064 15.0544L88.9782 14.5318L86.8303 14.5698L84.6824 14.6078L84.6469 22.6768L84.6114 30.7457L86.9165 30.7078L89.2217 30.6698L89.292 26.1697C89.3578 21.9572 89.3811 21.6287 89.6548 21.0296C90.3546 19.4979 91.5498 18.7451 93.5546 18.5734L94.5863 18.4849L94.6244 16.4425L94.6624 14.4002L93.8678 14.4094C93.4308 14.4146 92.8256 14.4978 92.523 14.5946ZM101.12 14.6083C99.9495 14.8466 97.922 15.594 97.4656 15.9554C97.1901 16.1735 97.122 16.3263 97.1771 16.6015C97.3176 17.3003 98.2613 19.3849 98.4373 19.3849C98.5353 19.3849 99.078 19.1639 99.6432 18.8936C100.789 18.3457 102.498 18.0778 103.871 18.2308C104.745 18.3281 105.029 18.4487 105.568 18.9518C106.12 19.4652 106.347 19.9683 106.347 20.6729V21.2824L105.212 21.3713C104.588 21.4202 103.489 21.4619 102.771 21.4638C100.921 21.4689 99.8871 21.651 98.7745 22.1672C97.1089 22.94 96.4255 24.0063 96.3335 25.976C96.284 27.038 96.3199 27.3391 96.5624 27.8908C97.4408 29.8897 99.2303 30.8863 101.947 30.8896C103.977 30.8919 104.748 30.6535 106.092 29.6064C106.368 29.3917 106.631 29.2159 106.677 29.2159C106.722 29.2159 106.76 29.5602 106.76 29.981V30.746L108.995 30.7079L111.23 30.6698L111.187 26.1005C111.117 18.7179 110.96 17.9259 109.238 16.2903C108.13 15.2387 107.391 14.8563 105.972 14.6016C104.645 14.3636 102.306 14.3668 101.12 14.6083ZM122.751 14.6059C121.861 14.8571 121.056 15.2597 120.224 15.8701L119.588 16.336L119.518 15.7143C119.403 14.685 119.384 14.6771 116.99 14.6771H114.873L114.909 22.6735L114.944 30.6698L117.248 30.7078C119.376 30.7428 119.553 30.7269 119.558 30.5001C119.719 23.1185 119.825 20.761 120.013 20.4012C120.282 19.8844 121.151 19.0613 121.747 18.7589C122.374 18.4407 123.772 18.3338 124.434 18.5534C124.719 18.6484 125.197 18.9475 125.494 19.2182C126.519 20.1505 126.491 19.9813 126.568 25.6158L126.636 30.6698L128.951 30.7079L131.266 30.7459L131.213 25.0308C131.163 19.5779 131.147 19.2732 130.856 18.3899C130.334 16.8035 129.02 15.4407 127.393 14.7973C126.402 14.4057 123.835 14.2998 122.751 14.6059ZM154.906 18.9349C154.907 21.3529 154.969 24.0789 155.043 24.9928C155.162 26.4633 155.233 26.7682 155.66 27.6437C156.85 30.0832 159.475 31.3505 162.437 30.9155C163.75 30.7227 164.499 30.4058 165.564 29.5919L166.39 28.9615L166.43 29.8503L166.471 30.7391H168.736H171L170.965 22.6735L170.929 14.6078L168.647 14.57L166.365 14.5321L166.272 19.0702C166.221 21.566 166.118 23.9172 166.043 24.2948C165.865 25.1883 165.323 25.9591 164.555 26.4122C164.063 26.7025 163.711 26.7875 162.805 26.8355C161.4 26.9097 160.827 26.6394 160.121 25.5697C159.659 24.8681 159.648 24.8182 159.561 22.985C159.513 21.9569 159.466 19.6359 159.458 17.8272L159.443 14.5386H157.174H154.904L154.906 18.9349ZM71.8538 16.3041C72.6579 18.0878 74.3186 22.3172 74.2442 22.392C73.9878 22.6501 68.5387 22.7734 68.2936 22.5267C68.1355 22.3676 71.0436 15.2309 71.2664 15.2309C71.3235 15.2309 71.5877 15.7138 71.8538 16.3041ZM143.615 18.4264C144.566 18.6318 145.514 19.5029 146.044 20.6588C146.389 21.4102 146.444 21.6942 146.439 22.7081C146.435 23.7 146.372 24.021 146.042 24.75C145.583 25.7641 144.713 26.637 143.948 26.8508C143.657 26.9322 143.012 26.9993 142.517 26.9997C141.02 27.0011 139.945 26.2959 139.14 24.7851C138.929 24.3888 138.881 23.9977 138.88 22.6388C138.879 20.7248 139.028 20.3071 140.086 19.2715C141.041 18.337 142.064 18.0918 143.615 18.4264ZM106.573 24.4735C106.534 24.683 106.466 25.1368 106.421 25.482C106.3 26.4122 105.931 26.9142 105.048 27.349C104.413 27.6615 104.086 27.7304 103.214 27.7346C101.978 27.7407 101.388 27.4998 100.977 26.8206C100.534 26.0894 100.686 25.2233 101.366 24.6037C101.814 24.1962 102.316 24.1171 104.535 24.1046L106.644 24.0927L106.573 24.4735Z" fill="white"/>
</svg>
