<svg xmlns="http://www.w3.org/2000/svg" width="30" height="30" viewBox="0 0 30 30" fill="#838383">
  <g clip-path="url(#clip0_1484_114)">
    <path d="M16.9219 15C16.9219 19.6594 13.1344 23.4375 8.46 23.4375C7.35049 23.439 6.25156 23.2219 5.22595 22.7987C4.20033 22.3755 3.26812 21.7544 2.48253 20.9709C1.69695 20.1874 1.07338 19.2568 0.647426 18.2324C0.221472 17.2079 0.00147639 16.1095 0 15C0 10.3388 3.7875 6.56251 8.46 6.56251C9.56966 6.56079 10.6688 6.77767 11.6946 7.20079C12.7205 7.6239 13.6529 8.24495 14.4387 9.02847C15.2245 9.81199 15.8482 10.7426 16.2743 11.7672C16.7003 12.7918 16.9204 13.8903 16.9219 15ZM26.2031 15C26.2031 19.3875 24.3094 22.9425 21.9731 22.9425C19.6369 22.9425 17.7431 19.3856 17.7431 15C17.7431 10.6125 19.6369 7.05751 21.9731 7.05751C24.3094 7.05751 26.2031 10.6144 26.2031 15ZM30 15C30 18.93 29.3344 22.1156 28.5113 22.1156C27.69 22.1156 27.0244 18.9281 27.0244 15C27.0244 11.07 27.69 7.88439 28.5131 7.88439C29.3344 7.88439 30 11.07 30 15Z" fill="#838383"></path>
  </g>
  <defs>
    <clipPath id="clip0_1484_114">
      <rect width="30" height="30" fill="white"></rect>
    </clipPath>
  </defs>
</svg>