<svg width="145" height="36" viewBox="0 0 145 36" fill="none" xmlns="http://www.w3.org/2000/svg">
<path d="M26.9189 35.0527C36.3368 35.0527 43.9715 27.4179 43.9715 18.0001C43.9715 8.58211 36.3368 0.947388 26.9189 0.947388C17.5009 0.947388 9.86621 8.58211 9.86621 18.0001C9.86621 27.4179 17.5009 35.0527 26.9189 35.0527Z" fill="#1896A4"/>
<path d="M27.7964 23.6731C27.1043 23.7791 26.3847 23.7653 25.6617 23.5983C22.6216 22.8965 20.726 19.8629 21.4279 16.8228C21.4797 16.5982 21.5493 16.3809 21.6243 16.1681L16.2878 13.9864C16.108 14.4616 15.9599 14.9483 15.8446 15.4431C14.4324 21.56 18.2473 27.6652 24.3643 29.0774C26.5089 29.5726 28.6504 29.422 30.5894 28.758L27.7964 23.6731ZM32.5443 17.4123L24.8031 17.3362L37.1208 23.0126C37.4953 22.2467 37.7953 21.4247 37.9956 20.557C39.4079 14.44 35.5929 8.33486 29.4759 6.92265C27.0205 6.35577 24.5711 6.63294 22.4224 7.55963L25.2684 12.6957C26.2198 12.3987 27.2331 12.3608 28.2041 12.5859C30.5856 13.1357 32.2669 15.1184 32.5443 17.4123Z" fill="white"/>
<path d="M52.8862 6.31262V29.6873H58.5515V16.6042L63.4178 25.8568H66.3704L71.4767 16.6042V29.6873H77.0599V6.31262H71.4767L64.9746 18.1136L58.7915 6.31262H52.8862ZM80.8399 6.31262H97.5641V11.1H86.3157V15.3474H96.0073V19.9231H86.3441V24.5905H97.8326V29.6873H80.8399V6.31262ZM99.6389 6.31262H105.219L112.918 22.3073L114.91 18L109.406 6.31262H114.674L117.146 11.34L119.06 6.31262H125.123L120.336 18.1136L122.41 22.3073L128.515 6.31262H134.71L124.965 29.6873H120.377L117.784 24.0221L115.548 29.6873H110.805L99.6389 6.31262Z" fill="white"/>
</svg>
