<svg width="51" height="50" viewBox="0 0 51 50" fill="none" xmlns="http://www.w3.org/2000/svg">
<rect x="1" y="0.5" width="49" height="49" rx="10.5" fill="#0B0B0B"/>
<rect x="1" y="0.5" width="49" height="49" rx="10.5" stroke="#232121"/>
<path d="M33.3103 18.1327C33.1483 18.049 32.9906 17.9572 32.8378 17.8578C32.3934 17.564 31.986 17.2179 31.6243 16.8268C30.7194 15.7914 30.3814 14.7409 30.2569 14.0054H30.2619C30.1579 13.395 30.2009 13 30.2074 13H26.0856V28.9382C26.0856 29.1522 26.0856 29.3637 26.0766 29.5727C26.0766 29.5987 26.0741 29.6227 26.0726 29.6507C26.0726 29.6622 26.0726 29.6742 26.0701 29.6862C26.0701 29.6892 26.0701 29.6922 26.0701 29.6952C26.0267 30.267 25.8434 30.8194 25.5363 31.3038C25.2292 31.7882 24.8079 32.1897 24.3092 32.473C23.7895 32.7687 23.2017 32.9238 22.6038 32.923C20.6834 32.923 19.127 31.3571 19.127 29.4232C19.127 27.4893 20.6834 25.9234 22.6038 25.9234C22.9673 25.923 23.3286 25.9802 23.6742 26.0928L23.6792 21.8961C22.63 21.7605 21.564 21.8439 20.5486 22.141C19.5332 22.438 18.5903 22.9423 17.7795 23.622C17.0691 24.2392 16.4718 24.9758 16.0146 25.7984C15.8406 26.0983 15.1842 27.3038 15.1047 29.2602C15.0547 30.3706 15.3882 31.5211 15.5471 31.9966V32.0066C15.6471 32.2865 16.0346 33.242 16.6661 34.0474C17.1753 34.6935 17.7769 35.2611 18.4515 35.7319V35.7219L18.4615 35.7319C20.4569 37.0878 22.6693 36.9988 22.6693 36.9988C23.0523 36.9833 24.3352 36.9988 25.7921 36.3083C27.4081 35.5429 28.328 34.4024 28.328 34.4024C28.9157 33.721 29.383 32.9444 29.7099 32.106C30.0829 31.1256 30.2074 29.9497 30.2074 29.4797V21.0241C30.2574 21.0541 30.9234 21.4946 30.9234 21.4946C30.9234 21.4946 31.8828 22.1095 33.3798 22.51C34.4537 22.795 35.9006 22.855 35.9006 22.855V18.7632C35.3937 18.8182 34.3642 18.6582 33.3103 18.1327Z" fill="#8D8D8D"/>
</svg>
